<?xml version="1.0" standalone="no"?>
<!DOCTYPE svg PUBLIC "-//W3C//DTD SVG 20010904//EN"
 "http://www.w3.org/TR/2001/REC-SVG-20010904/DTD/svg10.dtd">
<svg version="1.0" xmlns="http://www.w3.org/2000/svg"
 width="600.000000pt" height="600.000000pt" viewBox="0 0 600.000000 600.000000"
 preserveAspectRatio="xMidYMid meet">
<g transform="translate(0.000000,600.000000) scale(0.100000,-0.100000)"
fill="#0d7492" stroke="none">
<path d="M2860 5834 c-393 -23 -769 -121 -1109 -290 -855 -425 -1424 -1215
-1557 -2164 -25 -176 -25 -578 -1 -745 116 -784 499 -1432 1122 -1897 772
-578 1808 -716 2711 -363 378 147 716 374 1003 671 415 428 669 942 767 1551
10 61 18 192 21 343 6 271 -7 427 -52 645 -245 1184 -1240 2096 -2434 2230
-138 15 -368 24 -471 19z m-587 -907 c273 -72 514 -239 671 -465 l58 -82 50
77 c63 96 201 234 303 303 213 144 445 208 709 197 449 -19 801 -277 942 -691
42 -122 55 -218 55 -406 0 -202 -8 -270 -55 -458 -48 -192 -71 -249 -110 -273
-79 -48 -176 7 -176 101 0 17 16 83 35 148 170 574 51 1030 -325 1240 -85 48
-224 90 -330 101 -452 45 -868 -244 -974 -677 -24 -94 -57 -132 -116 -132 -46
0 -95 21 -109 48 -5 10 -17 47 -25 82 -64 257 -234 468 -471 587 -229 116
-515 128 -749 31 -233 -96 -390 -279 -457 -533 -45 -174 -35 -451 27 -684 26
-101 93 -295 129 -378 32 -70 96 -137 163 -169 l56 -27 371 -1 c364 -2 372 -3
418 -25 26 -13 63 -41 82 -64 61 -71 65 -99 65 -491 1 -193 5 -371 9 -396 11
-53 57 -100 99 -100 37 0 90 34 97 62 3 13 6 381 8 818 l2 795 23 57 c29 71
99 147 172 184 48 25 66 29 140 29 71 0 94 -4 140 -26 80 -37 125 -81 162
-157 l33 -66 5 -244 5 -244 33 -29 32 -29 623 0 c685 0 649 3 683 -62 24 -45
13 -78 -80 -244 -297 -535 -705 -1006 -1244 -1436 -168 -134 -207 -158 -255
-158 -56 0 -107 51 -107 109 0 22 5 50 11 63 6 13 60 61 121 108 466 358 875
790 1125 1188 60 96 66 130 28 167 l-24 25 -433 0 c-478 0 -509 3 -600 61 -55
36 -89 78 -126 157 -27 56 -27 61 -30 294 l-4 238 -30 25 c-48 40 -122 32
-150 -18 -10 -17 -14 -202 -18 -832 l-5 -810 -33 -67 c-104 -212 -371 -260
-535 -96 -24 24 -57 71 -73 104 l-29 59 0 376 c0 355 -1 378 -19 398 -18 20
-27 20 -461 23 l-442 3 -41 28 c-44 31 -85 101 -162 277 -158 361 -221 627
-222 940 -1 270 48 455 170 645 146 228 390 385 684 441 118 22 359 12 481
-19z"/>
</g>
</svg>
