<?xml version="1.0" encoding="utf-8"?>
<!-- Generator: Adobe Illustrator 27.5.0, SVG Export Plug-In . SVG Version: 6.00 Build 0)  -->
<svg version="1.1" id="Camada_1" xmlns="http://www.w3.org/2000/svg" xmlns:xlink="http://www.w3.org/1999/xlink" x="0px" y="0px"
	 viewBox="0 0 2000 2000" style="enable-background:new 0 0 2000 2000;" xml:space="preserve">
<g>
	<rect style="fill:#FFFFFF;stroke:#1D1D1B;stroke-miterlimit:10;" width="2000" height="2000"/>
	<g>
		<path d="M819.106,712.104c-0.053-0.013-0.106-0.026-0.159-0.039c-0.006,0.011-0.012,0.021-0.018,0.032L819.106,712.104z"/>
		<path d="M1354.169,832.946c-11.083-6.055-22.538-11.432-33.859-17.047c-8.494-4.213-17.036-8.329-25.557-12.488
			c12.846-3.862,25.581-6.084,38.292-8.431c21.19-3.913,28.444-15.548,21.188-35.656c-6.042-16.743-13.227-33.074-19.971-49.562
			c-0.736-1.8-1.811-3.482-2.876-5.123c-8.842-13.62-21.733-17.437-36.036-10.14c-12.226,6.237-24.153,13.06-36.229,19.593
			c-23.032,12.459-47.551,19.013-73.833,19.11c-4.816,0.018-6.17-1.451-6.916-6.056c-4.195-25.874-13.985-49.328-31.525-69.147
			c-19.499-22.032-42.394-38.71-71.689-45.365c-2.238-0.509-4.581-2.372-6.023-4.258c-6.824-8.925-12.962-18.4-20.119-27.037
			c-4.929-5.948-11.125-10.847-16.426-15.901c5.508-9.874,11.233-19.291,16.119-29.124c5.226-10.516,10.22-21.219,14.305-32.215
			c5.198-13.994-4.093-31.548-18.086-33.377c-10.734-1.403-19.259-6.28-27.773-12.078c-17.531-11.939-37.453-2.828-40.042,18.108
			c-1.792,14.49-7.042,27.803-15.215,39.795c-10.435,15.311-26.645,21.366-42.898,16.28c1.977-3.468,3.873-6.843,5.814-10.192
			c9.592-16.55,14.428-34.519,15.426-53.495c0.705-13.385-6.439-21.2-19.687-22.996c-8.364-1.134-15.732,1.587-22.164,6.111
			c-10.662,7.5-22.408,10.051-35.096,10.365c-8.737,0.216-17.626,1.961-21.294,10.995c-5.026,12.38-4.598,24.542,4.466,35.703
			c2.33,2.869,3.606,7.547,3.464,11.322c-1.16,30.835-18.035,51.694-44.222,67.223c-0.209-1.295-0.421-2.104-0.459-2.922
			c-0.869-18.773-3.103-37.266-8.535-55.412c-1.63-5.445-1.366-12.253,0.303-17.746c6.072-19.988-3.69-36.233-24.736-37.355
			c-19.923-1.062-39.9-0.811-58.446,9.146c-10.963,5.886-18.588,16.753-17.352,28.926c0.631,6.219,2.314,12.378,3.996,18.432
			c2.855,10.274,6.908,20.276,9.017,30.684c10.06,49.635,11.78,99.838,10.327,150.352c-0.844,29.35-5.119,57.554-17.099,84.592
			c-5.869,13.245-7.768,27.626-7.509,42.216c0.039,2.192-0.684,4.862-2.02,6.545c-26.15,32.947-36.985,73.252-53.073,110.969
			c-9.407,22.053-6.979,45.436-3.046,68.381c5.147,30.029,13.966,59.377,15.912,90.023c1.349,21.245,9.111,39.757,25.84,53.958
			c1.684,1.429,2.1,5.52,1.643,8.119c-4.232,24.05-2.323,47.759,7.042,70.049c31.403,74.735,76.686,138.956,142.873,187.519
			c30.57,22.43,60.048,46.395,89.36,70.469c10.721,8.805,21.974,15.4,35.18,19.252c13.166,3.84,26.542,7.349,39.15,12.622
			c20.487,8.569,41.304,15.049,63.539,16.761c25.699,1.979,50.683,0.226,73.121-14.083c15.909-10.146,28.524-24.018,38.267-39.835
			c14.268-23.161,27.518-46.989,40.337-70.995c36.432-68.228,55.517-141.772,64.779-218.06c3.295-27.138,1.008-54.369-1.551-81.577
			c-2.525-26.858-9.422-52.204-21.982-75.991c-2.087-3.953-1.906-7.053,0.017-10.889c8.182-16.327,10.211-34.143,11.306-51.971
			c1.227-19.991-4.156-39.013-11.707-57.202c-8.724-21.016-18.91-41.379-38.029-55.352c-5.163-3.773-10.739-6.98-16.762-10.858
			c9.314,0.753,17.995,1.309,26.643,2.185c16.84,1.707,31.915,8.142,46.132,17.123c16.111,10.177,28.788,23.852,40.887,38.29
			c6.246,7.453,14.171,11.997,24.254,8.288c10.666-3.924,17.725-11.318,18.087-23.201c0.515-16.838,4.289-32.625,11.912-47.76
			C1369.56,849.173,1366.252,839.548,1354.169,832.946z M1303.984,715.691c0.831-0.665,1.627-1.374,4.272-3.619
			c-2.135,25.455,6.968,45.397,23.635,62.397c-4.185,3.081-6.56,1.389-8.824-1.778c-11.211-15.687-21.109-31.893-21.569-52.037
			c-0.018-0.792-0.47-1.575-0.756-2.474C1301.958,717.251,1302.986,716.49,1303.984,715.691z M1106.273,689.761
			c-0.047-0.036-0.095-0.07-0.142-0.106c0.001,0,0.001-0.001,0.002-0.001l0,0c0.386-0.289,0.772-0.578,1.159-0.868
			c-0.387,0.289-0.773,0.578-1.159,0.868C1106.18,689.69,1106.226,689.725,1106.273,689.761z M985.37,519.855
			c2.251,6.028-1.982,13.381-7.643,12.94C980.436,528.208,982.803,524.202,985.37,519.855z M775.242,640.416
			c0.028-0.027,0.055-0.053,0.082-0.08c-0.708-0.095-1.416-0.19-2.124-0.285c-0.007-0.015-0.013-0.03-0.02-0.045
			c-0.002-0.004-0.15,0.022-0.15,0.022c0.021,0.038,0.042,0.077,0.062,0.115c-0.59,0.914-1.178,1.83-1.767,2.747
			c0.837-0.369,1.674-0.737,2.512-1.106l0.174,0.06c0,0,0,0,0,0h0c-0.024-0.053-0.048-0.107-0.072-0.16
			c0.425-0.413,0.849-0.826,1.274-1.24c0.447,1.108,0.894,2.216,1.341,3.324c-0.122,0.072-0.243,0.144-0.365,0.216
			c0.136,0.017,0.272,0.034,0.408,0.052c-0.115,1.391-0.233,2.806-0.383,4.62c-1.411-0.289-2.561-0.525-3.71-0.761
			c-1.724,3.779,1.788,8.123-1.909,12.011c-2.828,2.975-4.376,7.167-6.493,10.818c0.451,0.62,0.903,1.24,1.354,1.86
			c2.427-1.582,5.643-2.626,7.148-4.836c7.533-11.058,14.389-22.577,21.915-33.64c10.071-14.805,21.702-28.2,36.779-38.265
			c11.838-7.903,21.116-18.275,28.353-30.453c3.284-5.526,6.568-11.133,8.986-17.056c1.126-2.758,0.193-6.357,0.193-10.455
			c2.181,1.102,3.359,1.697,5.357,2.706c2.698-7.717,6.592-15.137,7.577-22.925c0.706-5.577,4.264-12.249-1.284-17.846
			c-0.849-0.857-0.612-2.936-0.623-4.451c-0.04-5.519-5.083-6.155-8.357-7.864c-4.429-2.312-7.556-0.907-11.022,3.842
			c-0.961-3.002-1.727-5.395-2.606-8.141c23.528,1.7,43.87-4.217,62.366-16.868c0.883,4.005,0.883,4.005-13.574,12.481
			c0.933,2.893,1.86,5.766,2.787,8.64c-0.127,0.225-0.179,0.466-0.155,0.723c0.647,3.498,1.991,7.037,1.789,10.486
			c-0.368,6.252-1.187,12.57-2.742,18.623c-0.894,3.481-3.602,6.497-5.13,9.103c-1.137,3.244-1.494,6.274-3.08,8.38
			c-3.552,4.72-8.037,8.745-11.516,13.511c-2.345,3.212-3.619,7.207-5.789,11.718c1.895-0.238,3.954-0.073,5.655-0.776
			c13.705-5.658,27.953-4.737,42.288-4.148c9.727,0.399,19.57,0.414,29.225-0.641c7.984-0.873,14.283-5.683,20.107-11.501
			c9.354-9.344,13.505-21.209,18.764-33.014c0,3.865,0,7.729,0,13.333c2.164-2.281,3.763-3.254,4.254-4.624
			c1.232-3.44,1.241-7.496,3.059-10.508c2.935-4.86-1.834-6.233-3.47-8.738c-0.39-0.596-4.562,1.278-6.846,2.704
			c-3.91-0.653-3.21-2.61-0.958-5.505c1.902-2.445,2.75-5.685,4.494-8.286c0.913-1.361,2.686-2.234,4.238-2.973
			c0.22-0.105,1.437,1.77,2.12,2.777c0.677,0.999,1.264,2.06,1.62,2.647c4.152-0.064-4.064-6.869,4.97-3.122
			c-5.128-5.981-12.891-7.016-14.503-14.202c14.787,9.446,29.102,19.386,47.379,21.044c-7.651,2.566-14.591-5.108-22.007-0.689
			c4.861,2.181,10.268,3.422,13.811,6.687c1.834,1.689,1.517,7.465,0.192,10.542c-8.147,18.92-18.012,36.921-33.224,51.207
			c-2.799,2.629-7.539,3.371-11.521,4.498c-2.713,0.767-5.665,0.687-8.601,2.346c6.63,3.599,13.18,7.355,19.905,10.766
			c15.997,8.111,27.667,20.438,35.85,36.233c0.792,1.527,1.405,3.172,1.904,4.821c2.565,8.463,2.514,8.4-5.46,11.719
			c-1.883,0.784-3.501,2.205-5.241,3.334c0.23,0.626,0.459,1.253,0.689,1.879c2.013-0.162,4.025-0.348,6.041-0.482
			c7.178-0.475,14.355-1.177,21.54-1.276c2.936-0.041,6.452-0.223,7.355,4.43c0.793,4.088,4.591,2.619,7.346,2.746
			c0.641,2.947,1.28,5.887,1.526,7.02c4.82,6.62,8.436,12.33,12.805,17.391c4.859,5.628,10.404,10.664,15.65,15.958
			c-0.308,0.388-0.338,0.796-0.09,1.224c0.332,0.922,0.664,1.844,0.996,2.766c-0.198,0.387-0.197,0.773,0.003,1.16
			c0.028,0.488,0.056,0.976,0.083,1.464l0,0c-0.402,0.069-0.803,0.148-1.199,0.236c-0.338,0.482-0.678,0.965-1.018,1.449
			c0.88-0.618,1.76-1.235,2.64-1.853c0.047-0.019,0.093-0.037,0.14-0.055c-0.934,0.627-1.861,1.263-2.78,1.908
			c3.422,6.51,3.172,6.978-5.625,8.395c0.614-4.036,1.178-7.747,1.743-11.458c-1.842-1.741-8.014-2.621-1.802-5.607
			c-1.703-1.44-3.438-2.908-6.641-5.615c-0.43,6.015-0.784,10.978-1.108,15.509c-8.054-0.56-13.76,4.592-20.95,7.762
			c2.75-14.311,4.901-27.841-2.693-41.041c4.013,23.7-1.187,44.776-16.701,62.995c-0.395,0.869-0.79,1.738-1.185,2.607
			c-0.153,0.069-0.305,0.138-0.458,0.207c0.646-2.254,1.3-4.504,2.114-6.695c3.597-9.686,5.401-19.583,3.381-29.838
			c-0.534-2.709-2.106-5.214-3.202-7.813c-1.821,1.305-2.3,2.008-2.134,2.489c3.728,10.834,1.597,21.084-2.125,31.538
			c-1.023,2.875-2.673,7.488-2.228,11.622c-1.636-0.031-3.272-0.061-4.908-0.092c-0.058-0.078-0.116-0.155-0.174-0.233l0,0
			c-0.646-0.865-1.292-1.73-1.937-2.594c0.646,0.865,1.292,1.729,1.937,2.594c0.626-0.386,1.252-0.773,1.877-1.159
			c-0.046-0.961-0.092-1.922-0.138-2.884c-0.857,0.085-1.714,0.171-2.572,0.257v0c-0.393,0.001-0.785-0.005-1.179-0.018
			c-0.938-0.013-1.878-0.025-2.817-0.038c0,0,0.179,0.219,0.197,0.241c-4.476-4.406-1.701-10.363-3.256-15.464
			c-1.861-6.103-2.655-12.524-4.156-18.748c-0.44-1.828-1.709-3.456-2.598-5.175c-0.522,0.199-1.044,0.399-1.566,0.599
			c1.027,9.515,2.053,19.029,3.127,28.975c-0.603-0.117-1.627-0.315-2.318-0.449c-0.474,4.88-0.953,9.799-1.496,15.397
			c-2.822-1.729-4.607-2.823-6.749-4.135c0.67-8.743-11.065-37.284-17.313-39.389c0.55,1.947,0.905,3.472,1.411,4.945
			c2.594,7.568,5.194,15.134,7.858,22.678c1.671,4.732,2.223,9.255-1.805,13.18c1.012-0.758,2.024-1.515,3.643-2.727
			c0,6.764,0,12.961,0,19.157c-0.758,0.131-1.516,0.262-2.274,0.393c-1.286-4.755-2.572-9.509-3.858-14.263
			c-6.09-7.733-11.993-15.625-18.371-23.113c-2.209-2.593-5.596-4.182-8.445-6.23c-0.581,0.621-1.161,1.241-1.742,1.861
			c1.259,1.577,2.266,3.484,3.82,4.678c9.117,7.004,14.651,16.537,18.963,26.846c1.534,3.666,1.798,7.65-3.442,9.425
			c-5.463-6.605-11.409-12.062-19.505-14.171c-0.433,0.555-0.866,1.11-1.298,1.666c1.449,1.325,2.939,2.608,4.339,3.985
			c3.509,3.453,7.422,6.612,10.357,10.505c4.362,5.784,4.277,8.125,1.979,10.281c-1.987,1.865,1.968,7.149-4.892,7.22
			c-2.323,0.024-4.667,6.818-6.831,10.616c-1.905,3.344-3.919,6.695-5.237,10.281c-1.122,3.054-1.321,6.447-2.038,10.274
			c2.047-0.206,3.132-0.316,4.217-0.425c0.128,0.278,0.256,0.555,0.384,0.833c-1.139,0.603-2.34,1.821-3.406,1.712
			c-7.32-0.749-14.621-1.712-21.911-2.726c-13.963-1.942-27.881-4.28-41.89-5.783c-4.94-0.53-10.091,0.904-15.146,1.441
			c-0.081,0.736-0.162,1.471-0.243,2.206c1.697,0.518,3.514,1.722,5.073,1.449c20.036-3.505,38.786,3.507,57.965,6.903
			c5.484,0.971,10.833,3.009,16.337,3.479c5.282,0.451,6.246,2.455,4.79,7.027c-0.407,1.277,0.103,2.847,0.291,5.856
			c-12.43,0-24.702,0.821-36.821-0.189c-18.957-1.581-37.799-2.453-56.714,0.157c-3.559,0.491-7.245,0.07-11.121,0.07
			c0.189-5.802,2.947-11.278-2.659-16.126c-2.121-1.834-1.753-6.69-2.254-10.206c-0.37-2.592-0.308-5.245-1.148-7.857
			c2.489-5.746,8.338-6.707,14.015-6.875c15.943-0.473,31.953-1.444,47.667,2.749c1.128,0.301,2.673-0.963,4.025-1.499
			c-1.153-1.04-2.216-2.853-3.473-3c-13.577-1.586-27.173-3.042-40.79-4.234c-4.952-0.434-9.973-0.07-15.177-0.07
			c-0.632-2.311-1.186-4.334-1.753-6.406c1.699-0.077,3.288-0.15,4.878-0.223c0,0,0,0,0,0c0.561-0.234,1.122-0.469,1.683-0.703
			c-0.573-0.409-1.147-0.818-1.72-1.227c-0.217-7.419,6.087-13.164,12.365-12.957c19.141,0.631,38.514-0.004,56.717,8.601
			c3.304-3.329,1.211-4.805-2.015-5.579c-10.315-2.473-20.638-4.926-31.005-7.165c-7.293-1.575-14.664-2.789-22.055-4.174
			c0.196-5.12,7.089-8.089,2.559-14.024c-0.745-0.976,3.771-7.9,9.441-7.777c0.93,0.02,1.871-0.403,2.806-0.621
			c0,0.001,0.002,0.006,0.002,0.006c0.425,0.203,0.849,0.401,1.273,0.598c0.059-0.357,0.118-0.715,0.177-1.072
			c-0.512,0.045-1.023,0.09-1.534,0.136c1.815-1.696,3.63-3.391,5.446-5.087l0,0c0.842-0.31,1.685-0.619,2.527-0.929
			c-0.02,0.053-0.041,0.105-0.061,0.158c0.029-0.056,0.058-0.112,0.087-0.168c0.041-0.015,0.082-0.03,0.123-0.045
			c-0.037,0.007-0.074,0.014-0.111,0.021c0.467-0.908,0.934-1.815,1.405-2.724c0.002-0.002,0.005-0.004,0.007-0.006l-0.193-0.022
			c-0.087-0.011-0.169-0.021-0.175-0.022c13.744-8.065,27.948-5.602,42.142-1.257c0.4-3.468,0.4-3.468-9.909-8.197
			c2.873-4.657,1.65-10.679,6.532-15.182c1.702-1.569-1.422-8.37-2.477-13.433c1.585,0.367,3.235,0.748,4.875,1.127
			c-0.44-2.125-0.9-4.346-1.433-6.918c14.477,3.227,26.931-0.652,39.404-4.413c-0.06-0.983-0.121-1.966-0.181-2.949
			c-4.419-0.224-8.838-0.448-14.152-0.717c8.511-9.79,16.336-18.789,24.16-27.789c-0.449-0.559-0.897-1.118-1.345-1.677
			c-1.838,1.237-3.951,2.207-5.467,3.759c-5.897,6.036-11.588,12.273-17.39,18.402c-4.197,4.434-6.179,5.156-10.986,3.625
			c8.414-10.648,14.215-22.285,17.143-35.089c-0.729-0.326-1.457-0.651-2.186-0.976c-4.503,8.447-9.006,16.895-13.269,24.893
			c-8.745-3.87-17.181-7.604-27.282-12.074c2.834-3.858,5.864-7.981,8.893-12.104c-0.151-0.435-0.303-0.871-0.454-1.307
			c-2.238,0.958-5.128,1.325-6.613,2.965c-13.285,14.663-31.989,15.276-49.744,18.578c9.051-4.062,18.38-7.629,26.998-12.464
			c2.866-1.608,3.908-6.467,6.522-11.17c-8.584,4.917-15.589,8.95-22.613,12.95c-14.638,8.337-29.25,16.721-43.986,24.882
			c-1.467,0.813-3.723,0.117-5.592,0.316c-1.352,0.144-3.727,0.387-3.85,0.967c-3.438,16.179-17.932,24.445-26.285,37.057
			c-4.109,6.203-7.925,12.601-12.033,19.165c2.184,1.928,3.753,3.313,5.321,4.698c-0.276,0.044-0.551,0.097-0.827,0.149
			c0.261,0.067,0.523,0.134,0.784,0.201v0c0.606,0.149,1.213,0.298,1.819,0.448c0.217-0.381,0.434-0.761,0.65-1.142
			c0.332-0.273,0.602-0.602,0.81-0.987c-1.178-5.485,0.165-10.169,6.551-13.118c4.245,1.618,4.138,1.535-0.297,7.257
			c-0.804,1.037-0.016,3.175-0.514,4.613c-0.883,2.544-2.19,4.942-3.319,7.401c1.266,2.88,1.266,2.88-3.714,6.779
			c0.623,1.287,1.247,2.575,1.87,3.862c-0.648,5.544-1.295,11.089-2.177,18.634c-2.513-4.882-4.115-7.994-5.718-11.107
			c0.481-0.144,0.962-0.287,1.444-0.431c-0.233-0.391-0.465-0.782-0.697-1.173c-0.198,0.314-0.395,0.629-0.593,0.943
			c-0.051,0.22-0.102,0.441-0.154,0.661l0,0c0.052-0.22,0.103-0.44,0.153-0.661c-0.947,3.5-1.931,6.99-2.827,10.503
			c-0.498,1.948-0.717,3.978-1.339,5.879c-0.226,0.691-1.889,1.204-1.828,1.654c1.357,10.053-9.665,14.978-10.204,23.48
			c-0.511,8.071-5.603,13.258-8.563,20.313c1.781,0.533,3.516,1.053,5.323,1.595c-0.122,0.173-0.261,0.584-0.452,0.61
			c-12.27,1.643-24.572,3.07-36.81,4.922c-12.033,1.821-24.104,3.799-33.303,13.23c-0.499-0.644-0.998-1.289-1.497-1.934
			c2.22-1.923,4.346-3.971,6.685-5.737c2.714-2.049,5.614-3.851,8.196-7.033c-2.89,0-5.78,0-8.67,0
			c-0.169-0.357-0.338-0.715-0.507-1.072c7.589-2.907,15.179-5.815,23.853-9.138c-8.551-4.816-14.575-0.186-20.869,1.894
			c-0.253-0.579-0.507-1.159-0.761-1.738c4.039-2.149,7.918-4.723,12.162-6.332c4.457-1.69,9.264-2.457,13.821-4.476
			c-7.108-4.382-13.791-0.319-20.986,0.252c4.522-2.106,8.908-4.615,13.607-6.198c4.349-1.465,9.033-1.938,14.1-2.954
			c-5.17-5.049-8.315-4.917-25.589,0.899c15.994-21.9,14.541-45.65,14.505-69.168c-0.837-0.131-1.674-0.262-2.511-0.393
			c-1.082,8.436-2.165,16.873-3.247,25.309c0.066-50.492,2.942-101.104-4.164-151.473c0.6-0.123,1.199-0.245,1.798-0.368
			c0.969,3.09,1.937,6.181,2.906,9.271c0.498-0.164,0.996-0.328,1.494-0.492c-1.613-8.435-3.225-16.871-4.838-25.306
			c-0.687,0.056-1.374,0.112-2.061,0.168c0.491,4.262,0.982,8.523,1.473,12.785c-0.434,0.114-0.868,0.227-1.302,0.341
			c-1.105-4.909-2.155-9.832-3.331-14.724c-0.999-4.153-2.114-8.28-3.233-12.403c-1.041-3.838-2.169-7.652-3.155-11.503
			c-0.02-0.077,1.321-0.352,1.861-0.755c1.167-0.872,3.143-1.854,3.179-2.85c0.248-6.716,6.313-4.416,9.42-6.939
			c-0.847-0.556-1.978-1.299-3.12-2.05c0.329-0.454,0.42-0.729,0.591-0.794c10.229-3.858,20.463-7.698,31.711-11.92
			c-2.509,2.027-4.559,3.681-6.93,5.597c1.659,1.179,3.232,2.298,5.662,4.026c-3.028,0.595-4.956,0.973-6.884,1.352
			c9.122,31.158,5.509,64.261,8.635,96.979c0.393-0.186,1.557-0.735,2.131-1.006c1.104,8.18,2.231,16.536,3.413,25.295
			C777.93,640.794,776.578,640.604,775.242,640.416z M1031.701,726.128C1031.7,726.128,1031.7,726.127,1031.701,726.128l-0.016-0.04
			c0.439,0.217,0.878,0.435,1.318,0.652c0,0.001,0,0.003,0,0.004C1032.568,726.539,1032.135,726.334,1031.701,726.128z
			 M1031.682,726.082c0.442-0.864,0.886-1.732,1.329-2.6c-0.443,0.867-0.885,1.734-1.328,2.601L1031.682,726.082z M914.073,893.779
			c0.003,0.556,0.005,1.112,0.008,1.668c-0.001,0-0.001,0-0.001,0.001C914.078,894.889,914.076,894.334,914.073,893.779z
			 M911.171,897.025c0.03-0.016,0.061-0.033,0.091-0.049C911.232,896.992,911.201,897.008,911.171,897.025
			c-0.382-0.834-0.763-1.669-1.145-2.503C910.408,895.356,910.789,896.19,911.171,897.025z M916.272,852.404
			c-8.187,0.875-16.371,1.779-24.565,2.594c-1.199,0.119-2.441-0.186-3.663-0.295c0.891-1.185,1.592-3.166,2.703-3.432
			c10.082-2.413,20.186-4.799,30.384-6.64c8.07-1.457,16.264-2.319,24.439-3.039c2.101-0.185,4.338,1.165,6.513,1.81
			c-0.047,0.679-0.094,1.358-0.142,2.037c-6.938,3.232-13.876,6.463-20.813,9.694L916.272,852.404z M884.535,847.851
			c-4.651,1.282-5.622-2.379-8.473-3.207l0.004-0.011c-0.209,0.428-0.417,0.855-0.626,1.283c-0.547-0.003-1.093-0.005-1.64-0.008
			c-0.219-1.873-0.438-3.747-0.68-5.813c1.97-0.426,3.495-0.576,4.882-1.096c2.508-0.939,7.497,1.87,6.801-4.359
			c-0.034-0.307,2.57-1.185,3.995-1.337c15.252-1.625,30.517-3.125,45.767-4.76c1.799-0.193,3.534-0.991,5.298-1.508
			c-0.106-0.645-0.211-1.289-0.317-1.933c-9.128,0-18.289-0.481-27.374,0.139c-8.625,0.588-17.281,3.723-25.714,3.061
			c-5.407-0.424-8.326,4.008-13,3.318c-2.481-1.744-4.962-3.487-7.443-5.231c2.931-1.791,5.746-4.884,8.812-5.157
			c16.989-1.514,34.027-2.637,51.073-3.263c6.986-0.257,14.031,1.068,21.219,1.688c-0.824,1.566-1.421,2.703-2.019,3.84
			c4.014,1.55,8.029,3.1,12.043,4.65c0.02,1.886,0.04,3.772,0.06,5.658c-11.888,0.082-23.198,3.572-34.701,5.907
			C909.812,842.286,896.993,844.417,884.535,847.851z M880.107,874.374c-0.389-0.603-0.778-1.205-1.167-1.808
			c0.002,0.001,0.003,0.002,0.005,0.003c-0.002-0.003-0.004-0.007-0.007-0.01c0.629,0.383,1.259,0.764,1.89,1.143
			c-0.628-0.378-1.256-0.756-1.884-1.133C879.331,873.172,879.719,873.773,880.107,874.374z M874.211,675.739
			c11.535-12.892,24.335-23.204,43.035-22.075c0.757,0.046,1.515,0.094,2.04,0.126c-33.429,33.452-62.182,69.778-79.57,114.135
			C845.427,734.938,850.766,701.943,874.211,675.739z M853.442,665.536c2.937-8.787,8.857-12.432,14.464-15.553
			C863.675,654.532,859.105,659.446,853.442,665.536z M912.236,706.084c-0.294,0.764-0.587,1.529-0.881,2.294
			c-0.895,0.173-1.789,0.346-2.684,0.518l0.039,0.117c-0.021-0.064-0.039-0.117-0.039-0.117
			C909.859,707.959,911.047,707.021,912.236,706.084z M877.217,871.596c0.274,0.104,0.547,0.207,0.821,0.31
			c-0.212-0.178-0.425-0.357-0.638-0.535c0.214,0.179,0.428,0.358,0.643,0.537c-0.002-0.001-0.003-0.001-0.005-0.002
			c0.001,0.001,0.003,0.002,0.004,0.004C877.767,871.805,877.493,871.7,877.217,871.596L877.217,871.596z M951.096,877.815
			C951.096,877.815,951.096,877.815,951.096,877.815c0.234-1.005,0.468-2.01,0.702-3.015h0
			C951.563,875.806,951.33,876.81,951.096,877.815z M954.479,869.543c0,0-0.003,0.002-0.003,0.002
			c0.448-0.442,0.896-0.885,1.343-1.327c0,0,0,0,0,0C955.372,868.66,954.926,869.101,954.479,869.543z M950.96,869.234
			c-0.001-0.006-0.002-0.012-0.003-0.017c-0.001,0.003-0.002,0.006-0.004,0.01c-0.166-0.955-0.335-1.912-0.506-2.87
			c0.17,0.953,0.339,1.907,0.509,2.861c0.298-0.84,0.593-1.684,0.886-2.529C951.549,867.536,951.254,868.385,950.96,869.234z
			 M946.833,869.195c-0.005-0.304-0.007-0.608-0.001-0.91l0,0C946.826,868.587,946.829,868.891,946.833,869.195z M950.58,870.772
			c0.062,0.849,0.123,1.699,0.185,2.548l0,0C950.703,872.47,950.642,871.621,950.58,870.772L950.58,870.772z M953.376,870.722
			L953.376,870.722c-0.083,0.149-0.166,0.299-0.248,0.448C953.21,871.021,953.293,870.871,953.376,870.722z M952.055,873.698
			c0.397,0.332,0.794,0.665,1.191,0.997h0C952.848,874.362,952.452,874.03,952.055,873.698L952.055,873.698z M953.339,870.722
			L953.339,870.722L953.339,870.722c-0.861-0.009-1.722-0.017-2.583-0.026l0,0c-0.001,0-0.001,0-0.001,0
			c0.025-0.321,0.049-0.644,0.07-0.969c-0.964-0.12-1.924-0.236-2.882-0.352h0c0.959,0.116,1.918,0.232,2.882,0.352l0,0
			c0.003,0,0.005,0.001,0.007,0.001c-0.025,0.323-0.051,0.645-0.076,0.968C951.617,870.705,952.478,870.713,953.339,870.722
			c0.394-0.392,0.788-0.784,1.181-1.176l0,0C954.126,869.937,953.732,870.329,953.339,870.722z M953.217,857.087
			c-0.418,0.616-0.837,1.232-1.256,1.847c0,0,0,0,0,0c0,0-0.001,0.001-0.001,0.001c-2.919,1.436-5.791,2.996-8.745,4.342
			c2.954-1.346,5.827-2.906,8.746-4.343C952.379,858.319,952.799,857.703,953.217,857.087L953.217,857.087z M944.298,874.496
			c0.154,0.069,0.309,0.105,0.464,0.106c-0.156-0.002-0.312-0.037-0.468-0.106C944.295,874.496,944.297,874.496,944.298,874.496z
			 M946.861,876.074C946.861,876.074,946.861,876.074,946.861,876.074L946.861,876.074L946.861,876.074z M953.357,874.806
			c0.449,0.445,0.897,0.891,1.346,1.336C954.255,875.696,953.806,875.251,953.357,874.806L953.357,874.806z M954.492,875.927
			l-0.012-0.012c0.447,0.447,0.893,0.893,1.339,1.34v0l0,0c0.004,0.242,0.007,0.483,0.011,0.725
			c-0.004-0.242-0.007-0.483-0.011-0.725C955.377,876.813,954.934,876.37,954.492,875.927z M955.969,869.548L955.969,869.548
			c0.448,0.448,0.896,0.895,1.344,1.343l0.004,0.004C956.867,870.446,956.418,869.997,955.969,869.548z M957.216,870.787
			c-0.051-0.054-0.101-0.109-0.101-0.109L957.216,870.787z M955.953,868.242L955.953,868.242c0.88,0.004,1.759,0.008,2.638,0.012h0
			C957.712,868.25,956.832,868.246,955.953,868.242z M953.361,859.085L953.361,859.085c0.876,0.954,1.752,1.908,2.628,2.862
			C955.113,860.993,954.237,860.039,953.361,859.085z M949.615,854.762c-0.114-0.031-0.213-0.058-0.213-0.058
			c0.172-0.127,0.352-0.208,0.541-0.244c-0.189,0.036-0.369,0.117-0.54,0.244L949.615,854.762z M943.541,877.472l-0.131,0.005
			c-1.243,0.024-2.487,0.048-3.73,0.072c0-0.001,0-0.001-0.001-0.002c1.244-0.022,2.487-0.046,3.731-0.07
			C943.41,877.477,943.541,877.472,943.541,877.472c0.134,0.436,0.268,0.872,0.403,1.309c0.906,0.391,1.813,0.781,2.72,1.171v0
			c-0.906-0.391-1.813-0.781-2.72-1.172C943.809,878.344,943.675,877.908,943.541,877.472z M956.101,863.978
			C956.101,863.978,956.101,863.978,956.101,863.978c0.477,0.02,0.954,0.041,1.432,0.061
			C957.055,864.019,956.578,863.998,956.101,863.978z M956.509,856.468c1.341-0.475,2.682-0.951,4.021-1.427
			c0,0,0.001,0,0.001,0.001C959.19,855.517,957.85,855.992,956.509,856.468z M959.836,845.221c-0.891,1.18-1.715,2.462-2.502,3.805
			v0C958.121,847.682,958.944,846.4,959.836,845.221c0.594-0.787,1.218-1.528,1.882-2.212
			C961.054,843.693,960.43,844.434,959.836,845.221z M946.854,880.039L946.854,880.039c0.383,0.412,0.765,0.824,1.147,1.237
			c1.078,0.042,2.156,0.083,3.234,0.125c-1.078-0.042-2.156-0.083-3.234-0.125c-0.496-0.028-0.991-0.057-1.486-0.085
			c0.495,0.029,0.991,0.057,1.486,0.085C947.619,880.863,947.236,880.451,946.854,880.039z M958.974,875.636
			c-0.002-0.003-0.004-0.006-0.006-0.008c0.274-0.737,0.542-1.47,0.806-2.2h0C959.507,874.164,959.24,874.9,958.974,875.636z
			 M959.791,873.374L959.791,873.374c0.432-1.309,0.863-2.618,1.294-3.926l0,0C960.654,870.757,960.223,872.065,959.791,873.374z
			 M963.479,864.163c-0.539,0.01-1.078,0.02-1.617,0.03c-1.092,0.455-2.183,0.909-3.275,1.364c0.002,0.879,0.003,1.758,0.004,2.637
			l0,0c-0.001-0.879-0.003-1.758-0.004-2.637l0,0c0,0,0,0,0,0c1.092-0.454,2.184-0.909,3.275-1.364
			C962.401,864.183,962.94,864.174,963.479,864.163L963.479,864.163z M908.786,709.242l0.011,0.032
			C908.794,709.264,908.791,709.255,908.786,709.242z M817.178,711.273l-0.047,0.323c0.007-0.052,0.044-0.302,0.045-0.325
			C817.177,711.273,817.177,711.273,817.178,711.273z M809.405,783.284c-0.443,0.08-0.886,0.16-1.328,0.241
			c-1.051-5.945-2.103-11.89-3.154-17.836c0.784-0.138,1.568-0.276,2.352-0.414C807.985,771.278,808.695,777.281,809.405,783.284z
			 M780.623,580.142c-0.498,0.063-0.996,0.126-1.494,0.189c-1.511-11.277-3.023-22.554-4.535-33.831
			c0.682-0.136,1.363-0.272,2.044-0.407C777.966,557.443,779.294,568.793,780.623,580.142z M717.54,511.094
			c-2.536-4.167,1.381-7.109,4.867-9.19c1.817-1.084,3.841-1.82,5.919-2.781c-0.282,8.867,2.183,11.502,10.739,9.674
			c7.562-1.615,14.941-4.391,22.092-7.391c1.608-0.675,1.932-4.411,2.848-6.739c-0.591-0.35-1.181-0.699-1.772-1.049
			c2.794,0.27,5.647,0.283,8.362,0.903c1.7,0.388,3.191,1.691,4.775,2.583c-1.014,1.568-1.722,3.499-3.089,4.647
			c-13.021,10.932-28.613,15.37-45.123,16.227C723.986,518.144,719.481,514.284,717.54,511.094z M690.039,898.708
			c7.682-14.485,17.454-27.861,26.319-41.718c-4.829,8.913-9.495,17.92-14.523,26.72c-9.82,17.185-17.12,35.217-19.042,55.089
			c-0.339,3.502,0.111,7.081,0.197,10.624c0.079,0.666,0.158,1.332,0.24,2.01c-0.001-0.002-0.002-0.005-0.003-0.007
			c-0.079-0.668-0.158-1.335-0.237-2.003c-1.032-3.268-2.936-6.533-2.947-9.804C679.996,925.216,683.411,911.207,690.039,898.708z
			 M688.865,1078.957c-3.07,9.69-5.955,18.798-9.1,28.726C675.166,1093.169,677.302,1086.518,688.865,1078.957z M692.029,1091.688
			c1.862-4.301,2.218-9.23,3.649-13.75c0.777-2.452,2.377-4.643,4.272-6.621c-1.822,18.527-6.841,35.742-19.056,50.174
			C678.806,1109.37,687.802,1101.447,692.029,1091.688z M690.656,1131.375c-0.501,2.041-1.119,4.054-2.069,7.472
			c-2.944-6.628-5.316-11.97-7.688-17.311c-0.001-0.009-0.001-0.017-0.003-0.026c9.626-1.687,13.129-9.89,16.483-17.172
			c3.634-7.89,6.292-16.505,7.699-25.079c2.025-12.336,6.143-22.885,16.903-30.093c1.055-0.707,1.434-2.421,2.127-3.668
			c-1.486,0.07-3.293-0.382-4.401,0.302c-4.194,2.588-8.506,5.161-12.142,8.44c-8.01,7.225-16.897,9.778-27.572,7.752
			c-6.026-1.144-9.695-4.279-10.468-9.896c-3.582-26.031-9.632-51.891-7.823-78.369c0.53-7.758,3.987-15.316,6.541-24.556
			c10.662,12.925,21.18,22.867,37.061,24.344c-6.689-8.152-18.386-11.105-22.071-22.074c3.962,3.327,5.071,1.233,5.544-2.748
			c4.365-36.738,20.917-68.581,39.98-99.42c0.646-1.045,0.743-2.43,1.096-3.657c-0.359-0.205-0.719-0.41-1.078-0.615
			c-2.626,2.467-5.251,4.935-7.877,7.402c7.158-7.42,14.006-15.196,21.744-21.953c1.492-1.303,7.52,0.337,9.626,2.446
			c4.698,4.704,8.909,10.195,12.111,16.028c5.756,10.486,11.299,21.202,15.549,32.348c1.839,4.824,0.733,11.018,0.051,16.476
			c-0.504,4.028-2.653,7.826-3.72,11.819c-0.35,1.311,0.398,2.914,0.644,4.384c1.104-1.058,2.739-1.919,3.22-3.209
			c2.11-5.659,3.885-11.442,6.288-18.71c8.615,8.591,16.399,16.415,24.283,24.138c1.03,1.009,2.575,1.492,3.881,2.218
			c-0.174-1.655,0.27-3.861-0.629-4.871c-4.188-4.707-8.209-9.845-13.28-13.426c-12.207-8.62-16.256-21.525-20.851-36.155
			c7.313-3.194,14.441-6.307,21.398-9.346c-4.702-3.809-14.402-1.188-22.409,6.447c-4.973-10.811-9.913-21.551-15.066-32.754
			c7.923-1.833,15.955-3.692,23.987-5.55c-0.144-0.761-0.289-1.521-0.433-2.281c-8.863,0.98-17.725,1.959-26.588,2.939
			c19.233-5.09,38.501-7.404,55.855,4.906c9.806,6.956,9.195,18.175,7.575,28.614c-1.816,11.698-7.877,20.528-20.596,23.541
			c0.191,0.834,0.382,1.667,0.574,2.501c1.754,0,3.632,0.409,5.24-0.077c4.774-1.442,9.367-3.502,14.165-4.835
			c9.727-2.702,14.538,0.149,18.592,9.165c2.161,4.807,4.911,9.904,8.773,13.304c28.071,24.712,24.092,64.295-4.11,88.601
			c-8.85-11.929-23.357-19.733-24.139-37.329c-0.881,0.143-1.763,0.287-2.644,0.43c-0.25,2.124-1.396,4.695-0.597,6.296
			c3.462,6.938,6.882,14.049,11.498,20.214c4.166,5.565,2.394,11.936,4.339,17.684c0.503,1.486,0.194,3.368-0.132,4.99
			c-1.277,6.369-2.708,12.708-4.304,20.078c-5.795-5.503-7.692-12.829-16.964-13.221c2.033,3.046,3.289,4.964,4.582,6.857
			c3.608,5.285,3.671,12.414,0.138,17.73c-3.982,5.992-10.981,6.937-17.701,2.203c-4.103-2.89-8.508-5.592-11.858-9.226
			c-2.241-2.431-3.175-6.264-4.118-9.631c-0.725-2.586-0.551-5.423-0.777-8.148c-0.737-0.185-1.473-0.371-2.21-0.556
			c-1.331,3.763-2.663,7.526-4.139,11.699c-5.55-8.269-2.358-17.715-2.871-26.576c-0.552-0.176-1.105-0.353-1.657-0.529
			c-0.814,1.145-2.233,2.233-2.344,3.443c-0.849,9.185-2.578,18.355,1.448,27.417c2.979,6.706,1.544,14.758-2.79,16.644
			c-6.304,2.744-11.47-0.709-15.773-4.768c-12.179-11.489-13.308-30.049-3.049-43.202c4.944-6.338,7.422-13.33,7.88-21.638
			c0.556-10.105,2.941-20.106,4.473-30.162c0.288-1.889,0.286-3.822,0.418-5.735c-0.518-0.151-1.035-0.302-1.553-0.453
			c-0.8,1.079-2.035,2.052-2.331,3.255c-2.079,8.438-5.652,16.945-5.543,25.389c0.196,15.235-5.26,27.045-16.988,36.943
			c-10.543-4.631-13.735-15.994-19.122-25.518c-0.628,0.268-1.257,0.536-1.886,0.804c0.205,1.918-0.231,4.269,0.723,5.683
			c4.93,7.313,10.219,14.384,15.375,21.545c1.321,1.835,3.789,3.729,3.732,5.532c-0.431,13.569,5.219,24.952,12.049,36.005
			c0.572,0.926,1.118,1.873,1.59,2.853c0.141,0.294-0.013,0.73-0.083,2.117c-3.098-1.804-5.787-3.37-10.581-6.162
			c0.837,3.298,0.723,5.731,1.867,6.741c2.169,1.915,5.074,2.987,7.645,4.458c8.575,4.906,9.113,14.514,0.724,19.877
			c-7.857,5.024-16.01,9.637-24.288,13.942C706.51,1096.602,695.519,1111.579,690.656,1131.375z M856.131,1142.775
			c0,7.497,0,14.995,0,22.492c-0.564-25.266-8.432-49.31-13.712-73.705c-1.868-8.63-7.749-16.357-11.481-24.639
			c-1.238-2.748-1.495-5.938-2.523-10.292c5.703,1.648,9.161,2.647,11.479,3.317c10.457,42.891,17.103,85.993,37.31,125.174
			c-0.531,0.266-1.063,0.532-1.595,0.799c-3.683-6.918-7.921-13.608-10.892-20.819c-3.017-7.324-4.784-15.162-7.098-22.775
			C857.124,1142.476,856.627,1142.626,856.131,1142.775z M725.712,1147.231c-1.139,1.088-2.94,2.808-4.91,4.69
			c-8.841-12.585-4.949-30.438,1.999-36.117C723.711,1125.626,724.686,1136.15,725.712,1147.231z M734.196,1278.286
			c-10.717-25.518-28.877-48.369-25.524-78.854c9.202,26.038,18.405,52.075,27.607,78.113
			C735.585,1277.792,734.891,1278.039,734.196,1278.286z M874.469,1431.493c-29.172-20.301-52.704-46.207-73.869-74.453
			c-0.35-0.467-0.298-1.236-0.433-1.865c-8.674-12.639-18.88-24.515-25.65-38.103c-9.387-18.841-16.146-38.989-24.123-58.539
			c-4.719-11.565-9.617-23.056-14.435-34.58c-0.816,0.267-1.631,0.535-2.447,0.802c0.376,2.241,0.407,4.609,1.179,6.704
			c10.5,28.501,21.131,56.953,31.601,85.465c0.594,1.618,0.077,3.644,0.077,5.48c-1.115,0.16-2.229,0.32-3.344,0.48
			c-21.558-53.443-40.12-107.879-53.218-164.126c9.966,10.614,18.166,28.108,24.777,48.837c2.67,8.373,6.97,16.231,10.572,24.303
			c8.197,18.367,16.308,36.775,24.725,55.041c1.81,3.93,4.765,7.332,7.193,10.977c-4.069-13.591-7.419-27.455-12.429-40.691
			c-4.252-11.234-11.129-21.461-15.564-32.641c-5.801-14.623-10.276-29.769-15.465-44.64c-1.606-4.602-3.9-8.965-5.461-13.579
			c-1.057-3.123-1.383-6.494-2.155-10.349c4.488,0.413,7.378,0.679,11.244,1.035c-7.988-10.604-10.396-40.728-4.464-50.053
			c1.016,5.958,1.582,11.637,3.027,17.082c1.398,5.263,3.701,10.285,6.976,15.042c2.922-6.54-2.817-11.608-2.517-18.113
			c3.397,0,6.83,0,12.145,0c-2.283-1.85-2.823-2.638-3.497-2.778c-4.952-1.028-9.965-1.327-9.659-8.757
			c0.375-9.122,2.161-12.538,9.389-14.88c13.12-4.251,23.923-10.949,29.36-24.738c3.616-9.171,7.617-12.04,14.577-13.182
			c-4.957,9.81-8.304,20.3-14.713,28.351c-15.736,19.767-23.068,42.748-29.017,66.539c-2.996,11.981-6.166,23.926-8.758,35.995
			c-0.404,1.88,1.865,4.333,2.518,5.717c2.651-2.467,5.038-4.687,6.105-5.68c-0.546-3.882-1.797-6.835-1.176-9.321
			c4.532-18.168,9.052-36.358,14.42-54.288c2.153-7.191,5.624-14.309,9.917-20.47c8.486-12.176,17.121-24.153,22.546-38.114
			c0.694-1.785,1.751-3.833,3.256-4.808c2.521-1.634,5.538-2.501,8.347-3.691c0.485,2.394,1.444,4.801,1.382,7.181
			c-0.633,24.612-8.033,46.578-25.034,65.008c-5.666,6.143-10.058,13.477-9.529,22.322c0.933,15.576,1.204,30.795-13.777,41.563
			c0.687,0.651,1.374,1.303,2.06,1.954c1.98-1.08,4.425-1.735,5.864-3.309c8.786-9.606,13.245-20.812,11.451-34.165
			c8.075,15.386-0.523,29.622-3.607,44.198c0.659,0.267,1.318,0.535,1.977,0.802c1.143-1.413,2.782-2.654,3.344-4.27
			c2.362-6.791,5.106-13.571,6.34-20.595c1.024-5.833,1.313-12.309-0.151-17.961c-3.206-12.371,3.903-19.395,11.741-27.63
			c0.15,24.011,1.873,46.737-6.164,69.276c-8.772,24.602-9.401,50.721-8.161,76.682c0.252,5.281,2.242,10.479,3.43,15.715
			l-0.002-0.001c-1.826-2.141-3.651-4.283-6.465-7.585c0,3.331,0.014,5.532-0.003,7.734c-0.024,3.02-0.071,6.04-0.108,9.059
			c1.988,4.192,3.785,8.488,6.004,12.554c4.048,7.418,5.624,15.884,11.568,22.63c4.71,5.346,7.391,12.479,10.973,18.818
			c9.36,11.624,18.719,23.248,28.078,34.873c0.586,0.088,1.172,0.176,1.758,0.265c0.079-2.829,0.935-5.933,0.053-8.421
			c-1.287-3.631-3.824-6.82-5.828-10.197c-8.884-11.772-17.839-23.492-26.564-35.381c-1.086-1.479-0.949-3.856-1.378-5.817
			c1.915,1.149,4.441,1.856,5.647,3.52c8.278,11.411,16.289,23.015,24.338,34.591c0.319,0.458,0.149,1.257,0.207,1.897
			c1.65,1.927,3.492,3.722,4.919,5.802c12.43,18.11,24.786,36.271,37.99,55.628C876.314,1432.517,875.331,1432.093,874.469,1431.493
			z M786.953,1293.511c3.526,7.716,7.052,15.431,10.577,23.147c-5.195,0.583-5.487-3.591-6.422-6.867
			C789.572,1304.408,788.323,1298.942,786.953,1293.511L786.953,1293.511z M874.445,1403.28
			c-5.161-6.719-9.952-13.721-14.859-20.635c-1.489-1.472-2.977-2.944-4.466-4.416l0,0c1.489,1.472,2.977,2.944,4.466,4.416
			c2.02,0.862,4.705,1.178,5.942,2.683c4.865,5.918,9.274,12.212,13.852,18.366C877.689,1403.591,875.122,1404.161,874.445,1403.28z
			 M1250.786,1198.11c-1.473,10.945-2.487,21.382-4.332,31.67c-6.867,38.282-14.435,76.392-27.658,113.148
			c-16.913,47.012-38.567,91.761-64.291,134.51c-9.348,15.535-19.792,30.477-35.619,40.55
			c-21.551,13.716-45.129,15.092-70.071,12.135c10.934-17.901,14.002-37.235,15.643-57.182c0.825-10.03,4.052-19.866,6.261-29.775
			c0.2-0.895,0.898-1.679,1.996-2.409c1.189,16.492,6.402,32.637,1.599,49.328c-3.197,11.109,2.887,27.269,12.188,32.079
			c0-2.491,0.667-4.775-0.106-6.355c-5.796-11.855-3.407-23.303,0.411-35.133c2.346-7.27,2.924-15.111,4.479-23.704
			c6.735,8.996,12.661,17.613,14.995,28.132c1.551,6.996,2.403,14.149,3.999,21.133c0.487,2.13,2.407,3.933,3.671,5.886
			c0.865-2.142,2.54-4.312,2.469-6.422c-0.658-19.395-6.583-37.274-17.244-53.366c-8.949-13.508-13.317-27.792-13.247-44.183
			c0.096-22.395,2.276-44.387,7.504-66.116c0.24-0.997,0.776-1.922,1.621-3.958c6.031,9.62,9.489,18.965,9.668,29.391
			c0.247,14.392,0.028,28.8,0.621,43.175c0.671,16.238,4.032,31.941,11.657,46.502c0.705,1.347,1.42,2.701,2.272,3.955
			c0.601,0.884,1.442,1.604,3.648,3.988c0.459-3.334,1.544-5.613,0.849-7.001c-10.12-20.213-10.24-41.991-10.179-63.77
			c0.023-8.186,0.715-16.37,1.113-24.788c12.51,0.915,14.333,9.713,15.637,18.951c0.559-0.059,1.118-0.117,1.677-0.176
			c0.794-2.151,1.588-4.301,2.283-6.184c9.32,8.296,9.401,21.286,13.509,33.367c6.043-8.645,2.508-22.843-7.634-38.483
			c2.406,1.424,4.971,2.642,7.177,4.328c2.359,1.804,4.381,4.05,6.564,6.117c4.636-3.034,3.008-5.96-0.181-7.898
			c-6.115-3.717-12.487-7.035-18.892-10.242c-3.1-1.552-6.466-2.635-9.797-3.655c-6.556-2.009-10.578-4.994-8.437-13.086
			c1.173-4.436,0.21-9.436,0.21-14.283c4.969,4.65,9.898,10.289,15.828,14.527c6.043,4.319,16.302,2.615,21.445-2.836
			c-1.717-0.389-3.201-1.255-4.219-0.874c-9.053,3.38-14.913,0.057-21.548-6.772c-11.286-11.616-19.85-24.552-23.735-39.971
			c-1.941-7.704-2.524-16.765-0.432-24.298c10.61-38.211,13.529-77.131,13.85-116.532c0.111-13.62,2.461-27.254,4.317-40.81
			c0.563-4.108,2.901-7.974,4.635-12.497c10.972,15.605,22.16,29.759,31.254,45.151c4.957,8.389,6.441,18.852,9.345,28.423
			c2.402,7.916,5.259,15.785,6.621,23.892c0.809,4.817,0.293,10.591-1.715,14.98c-3.324,7.263-8.376,13.729-12.604,20.59
			c-1.136,1.843-2.158,3.831-2.769,5.89c-0.271,0.914,0.609,2.17,0.967,3.27c1.05-0.5,2.527-0.712,3.084-1.542
			c7.036-10.471,13.939-21.03,21.244-32.126c5.3,7.273,10.893,13.44,10.867,23.833c-0.054,21.195-9.211,37.678-22.974,52.523
			c-1.607,1.733-2.776,3.87-3.152,6.698c9.236-4.578,13.589-14.076,20.876-20.611c1.336,5.405,0.563,9.193-8.151,24.926
			c-4.273,7.714-10.257,14.479-15.467,21.674c0.439,0.447,0.879,0.894,1.319,1.341c1.875-1.392,3.75-2.785,5.626-4.178
			c0.294,0.23,0.588,0.46,0.882,0.689c-1.989,3.556-4.176,7.022-5.867,10.714c-0.639,1.396-0.135,3.315-0.152,4.995
			c1.281-0.905,3.116-1.523,3.756-2.759c4.297-8.302,8.411-16.701,12.436-25.14c1.949-4.088,3.576-8.33,5.674-13.267
			c3.265,5.968,3.913,13.457,12.595,12.746c-13.123-14.633-3.251-30.538-3.216-45.714c0.008-3.393,1.33-6.783,3.629-10.8
			c3.741,6.711,7.482,13.422,11.224,20.133c3.15-8.328-0.311-14.382-4.507-19.776c-4.039-5.191-6.418-10.506-6.309-17.157
			c0.063-3.823-0.895-7.662-0.209-12.788c12.609,9.407,25.217,18.815,37.826,28.222c0.727-0.66,1.454-1.321,2.181-1.982
			c-0.933-1.746-1.462-3.964-2.862-5.163c-11.854-10.149-23.458-20.251-38.314-26.614c-12.84-5.5-19.474-18.466-22.52-31.354
			c-5.426-22.958-13.191-44.627-25.727-64.656c-1.999-3.194-1.87-7.719-2.725-11.629c3.545-0.38,7.108-1.188,10.63-1.041
			c5.21,0.218,10.461,0.768,15.571,1.79c12.471,2.493,17.367,8.144,18.928,20.724c1.637,13.194,3.32,26.385,5.197,39.547
			c1.235,8.663,5.049,16.026,11.282,22.369c3.262,3.319,5.451,7.69,8.138,11.578c2.083,3.015,4.186,6.018,8.82,1.476
			c-9.34-14.609-27.785-25.013-23.736-46.196c13.564,7.929,15.85,26.76,31.828,33.672c-0.946-2.146-1.498-4.603-2.903-6.388
			c-7.884-10.015-16.125-19.751-23.946-29.813c-6.854-8.818-4.767-19.036-3.472-28.935c0.135-1.03,2.96-2.698,4.197-2.441
			c12.312,2.558,21.987,7.823,17.253,24.248c-0.493,1.712-0.561,3.547-1.046,6.799c8.509-4.348,6.906-10.907,7.065-16.78
			c8.145,4.375,18.15,22.756,17.833,31.902c-0.502,14.46-11.89,21.648-21.995,31.618
			C1238.205,1206.772,1242.495,1199.045,1250.786,1198.11z M1091.882,1188.197c-0.552-24.481,0.828-48.62,7.536-72.283
			c0.506-1.787,0.677-3.668,1.003-5.506c-0.387-0.246-0.774-0.493-1.161-0.74c-3.814,5.065-7.629,10.13-11.443,15.196
			c29.074-49.162,27.654-58.829,28.274-86.213c5.501,1.68,10.676,3.26,14.121,4.312c-1.181,10.149-3.833,19.363-2.932,28.215
			c1.573,15.456,15.587,28.194,31.023,30.123c6.22,0.777,12.581,0.679,18.871,0.584c12.396-0.188,17.529,3.193,21.759,15.529
			c-6.975-11.998-18.991-10.586-30.048-12.251c-10.614-1.599-21.408-3.215-31.5-6.653c-7.067-2.407-12.792-8.112-12.763-18.259
			c-9.734,9.83-15.796,20.349-19.574,32.289c-7.985,25.232-8.49,51.224-9.063,77.409c-0.45,20.571-2.635,41.24-5.853,61.58
			c-3.795,23.99-3.629,46.7,10.941,67.479c1.572,2.242,2.065,5.241,3.059,7.889c-0.875,0.494-1.749,0.988-2.623,1.482
			c-5.443-8.615-10.887-17.231-16.33-25.846c-0.557,0.08-1.113,0.161-1.67,0.241c-0.408,3.642-0.817,7.284-1.325,11.818
			c0-15.399-0.991-29.995,0.283-44.391c1.236-13.981,5.448-27.677,7.148-41.645
			C1091.241,1215.199,1092.185,1201.635,1091.882,1188.197z M1250.609,1153.817c-8.647-15.09-21.406-24.914-37.54-30.333
			c-4.217-1.416-6.256-3.43-7.476-7.757c-5.237-18.584-12.19-23.719-31.661-24.896c-4.521-0.273-9.11-1.108-13.448-2.413
			c-8.936-2.688-15.018-8.681-17.795-17.641c-2.996-9.669,1.816-19.657,10.209-21.742c10.029-2.491,20.255,3.742,22.793,13.44
			c1.133,4.329,2.882,8.607,5.08,12.496c0.938,1.659,3.741,2.265,5.948,3.488c0.568-1.912,0.914-2.426,0.778-2.709
			c-4.038-8.417-2.388-11.827,7.195-12.553c8.199-0.621,16.483-0.128,26.16-0.128c-2.74,3.292-5.067,5.893-7.174,8.662
			c-4.053,5.327-8.138,10.645-11.838,16.214c-0.79,1.19,0.007,3.434,0.073,5.192c1.329-1.064,3.31-1.858,3.881-3.236
			c3.537-8.537,10.851-13.242,18.093-19.159c0.645,9.751-7.11,13.398-11.233,19.438c8.493-1.695,13.957-6.929,17.297-14.724
			c5.381,7.131,4.98,17.171-0.445,22.046c-5.874,5.278-13.877,8.186-20.952,12.127c0.001,0.53,0.002,1.06,0.003,1.591
			c5.911-1.525,11.823-3.049,17.48-4.508c-1.885,4.477-4.01,9.524-6.352,15.086c7.967-1.539,16.339-16.062,19.745-33.378
			C1249.299,1109.851,1246.769,1132.367,1250.609,1153.817z M1209.536,1041.293c3.12-12.693,6.039-24.563,9.18-37.339
			c-0.049,0.005,1.607-0.342,3.254-0.301c11.947,0.294,13.175,1.746,9.572,13.469c-2.577,8.385-4.958,17.256-13.789,21.675
			C1215.083,1040.133,1211.967,1040.58,1209.536,1041.293z M1215.765,920.976c7.601,16.242,16.549,31.847,19.362,49.983
			c1.382,8.915-0.15,16.857-6.421,23.205c-2.779,2.814-7.022,4.182-10.776,6.306c-1.187-6.052-2.271-11.576-3.355-17.101
			c-0.719-0.024-1.437-0.049-2.156-0.073c-0.443,3.131-1.239,6.259-1.266,9.393c-0.104,12.365,0.474,24.835-8.188,35.186
			c-1.254,1.499-2.432,3.096-3.872,4.397c-4.047,3.654-8.534,6.602-14.059,3.37c-5.565-3.255-1.94-7.958-1.444-12.208
			c1.115-9.545,2.055-19.111,2.932-28.68c0.101-1.108-0.651-2.294-1.008-3.444c-0.724-0.022-1.447-0.043-2.171-0.065
			c-0.201,1.925-0.3,3.867-0.621,5.772c-0.899,5.347-1.286,10.879-2.966,15.978c-3.896,11.824-14.8,16.355-27.474,12.011
			c-7.55-2.588-10.519-12.255-7.99-22.999c3.737-15.874,6.965-31.872,10.144-47.87c0.535-2.692-0.276-5.652-0.465-8.488
			c-0.708,0.032-1.415,0.063-2.123,0.095c-1.661,8.167-2.978,16.424-5.06,24.483c-3.825,14.809-10.197,28.255-22.154,38.487
			c-11.511,9.85-23.118,6.647-27.031-7.958c-3.201-11.947-1.137-23.709,3.47-34.91c2.976-7.234,6.7-8.343,14.709-6.374
			c4.106,1.01,8.41,3.834,13.507-0.666c-2.798-1.188-4.869-2.15-6.998-2.957c-12.395-4.694-18.652-16.199-13.511-28.208
			c5.873-13.718,12.914-27.019,20.504-39.877c2.931-4.965,8.539-8.51,13.327-12.181c7.428-5.695,14.906-3.251,21.775,1.276
			c1.429,0.942,2.276,4.082,2.003,6.014c-0.538,3.815-2.046,7.494-3.231,11.492c-5.937,1.718-12.864-4.299-19.337,1.971
			c5.203,0.646,9.394,1.241,13.602,1.669c4.763,0.485,7.018,2.314,5.798,7.676c-1.059,4.658-1.088,9.55-1.572,14.338
			c0.877,0.215,1.755,0.43,2.632,0.645c0.714-2.539,1.513-5.058,2.127-7.621c1.461-6.103,2.07-12.543,4.433-18.263
			c3.071-7.432,7.433-8.118,14.621-4.699C1199.399,896.706,1209.212,906.975,1215.765,920.976z M1327.631,912.294
			c-0.813,0.68-1.626,1.359-2.438,2.039c-0.4-1.458-0.714-2.946-1.215-4.368c-1.656-4.705-4.095-9.272-4.868-14.11
			c-0.734-4.591-3.512-6.161-6.872-8.158c-5.052-3.003-9.978-6.304-14.591-9.943c-9.036-7.126-17.575-14.902-26.815-21.739
			c-4.314-3.192-10.645-3.874-14.517-7.392c-5.288-4.804-9.112-11.222-13.537-16.969c-0.617-0.801-1.087-1.716-2.109-3.356
			c-5.194,7.888,1.763,12.285,3.813,18.288c-17.679-4.487-35.21-1.576-52.731-1.125c-1.901,0.049-4.483-1.238-5.66-2.752
			c-4.17-5.365-7.867-11.098-12.662-16.43c-3.274,7.924,2.065,13.647,6.118,20.402c-14.729,1.242-23.954-6.813-31.71-17.334
			c-3.345-4.537-6.022-9.562-9.246-14.197c-0.981-1.41-2.774-2.255-5.176-2.281c3.589,9.177,7.177,18.354,10.766,27.531
			c-0.332,0.192-0.665,0.384-0.997,0.576c-3.188-4.667-6.377-9.334-10.305-15.084c-0.394,5.827-0.868,9.747-0.773,13.654
			c0.023,0.943,1.928,1.841,2.968,2.759c0,0-0.273,0.292-0.273,0.292l0.384,0.217c2.229,1.948,4.458,3.897,6.994,6.114
			c-4.519,2.528-7.017,2.471-9.839-2.226c-8.909-14.831-18.486-29.262-27.892-43.791c-1.143-1.766-2.819-3.188-4.249-4.769
			c-0.509,0.368-1.017,0.736-1.526,1.104c8.735,15.926,17.471,31.852,26.206,47.778c1.825,2.23,3.65,4.46,5.698,6.963
			c-7.01,3.673-7.207-2.778-9.705-5.462c-7.96-11.299-18.742-19.869-28.795-29.058c-6.543-5.98-14.264-10.696-21.614-15.751
			c-1.834-1.261-4.272-1.643-6.433-2.429c-0.322,0.634-0.643,1.268-0.965,1.903c1.973,1.426,3.842,3.03,5.935,4.25
			c15.378,8.959,28.343,20.695,39.716,34.279c3.434,4.102,1.168,8.079-0.866,11.602c-2.133,3.694-4.925,1.02-7.537-0.029
			c-4.655-1.87-9.411-3.488-14.125-5.212c-0.267,0.681-0.533,1.362-0.8,2.043c4.153,3.312,8.489,6.425,12.398,10.004
			c2.878,2.633,5.199,5.875,7.768,8.846c0.908-1.585,1.816-3.17,2.724-4.755c0.542,0.51,1.083,1.021,1.625,1.531
			c-1.452,1.08-2.904,2.16-4.355,3.24c-0.43,3.07-0.86,6.141-1.309,9.353c-9.108-4.611-16.962-8.916-25.092-12.614
			c-8.611-3.917-17.495-7.2-27.149-6.489c-0.635,0.827-1.271,1.655-1.906,2.482c1.223,0.35,2.424,0.86,3.672,1.025
			c10.971,1.455,21.352,4.478,30.474,11.046c3.346,2.409,6.528,5.34,10.263,6.838c4.596,1.843,2.766,4.108,1.288,6.471
			c-1.824,2.916-3.958,5.639-6.11,8.659c-5.881-5.317-11.625-10.51-18.224-16.476c0.904,11.542,14.143,14.55,15.641,26.396
			c-21.293-16.05-21.293-16.05-27.568-13.389c5.805,3.801,11.009,7.162,16.166,10.595c8.043,5.355,7.888,5.322,4.671,13.958
			c-2.857,7.67-5.352,15.475-8.243,23.909c-17.729-12.329-35.879-24.084-58.239-25.457c-0.28,0.609-0.561,1.219-0.841,1.828
			c2.164,0.967,4.328,1.934,6.492,2.901c13.447,6.011,27.242,11.364,40.24,18.227c11.966,6.319,11.589,7.034,7.71,20.534
			c-2.395-1.892-4.631-3.657-6.866-5.422c-0.551,0.136-1.102,0.271-1.653,0.407c2.652,9.177,8.95,18.022,3.624,28.174
			c-12.401-8.283-26.219-13.723-41.205-15.124c-14.777-1.382-29.68-1.932-43.986,2.879c0.015,0.812,0.031,1.624,0.046,2.436
			c2.219,0,4.503,0.346,6.648-0.053c24.026-4.464,47.027-1.55,68.502,10.22c6.74,3.695,13.647,8.332,11.764,18.473
			c-30.781-20.594-62.93-17.304-95.439-8.096c-0.028,1.253-0.056,2.505-0.083,3.757c1.992-0.165,4.102,0.041,5.958-0.55
			c24.057-7.661,48.09-8.853,71.786,0.978c5.714,2.371,10.65,6.619,15.943,10.004c-0.363,0.95-0.726,1.901-1.089,2.851
			c-3.205-0.385-6.527-0.356-9.594-1.226c-13.736-3.893-27.464-3.937-41.208-0.35c-1.801,0.47-3.349,1.911-5.015,2.903
			c1.781,0.476,3.711,1.658,5.319,1.319c16.551-3.497,32.264,0.739,48.287,4.516c-0.149,1.411-0.158,2.494-0.388,3.528
			c-2.338,10.499-5.577,12.39-15.407,8.437c-4.21-1.693-8.453-3.702-12.038-6.416c-2.624-1.986-4.199-5.357-6.631-8.636
			c-5.054,8.451-10.315,17.247-15.576,26.043c0.794,0.518,1.589,1.036,2.383,1.555c4.449-6.431,8.898-12.862,13.313-19.244
			c5.044,10.303,16.276,9.796,26.493,14.967c-7.541,9.022-14.986,17.85-22.318,26.771c-1.461,1.778-2.487,3.913-3.714,5.883
			c2.451-0.596,5.303-0.58,7.289-1.884c17.921-11.767,31.605-27.258,40.335-46.967c0.682-1.54,1.551-2.996,2.145-4.131
			c4.318,5.129,8.145,10.488,12.786,15.014c8.987,8.766,11.597,19.095,7.223,30.469c-6.722,17.481-13.428,35.083-21.95,51.707
			c-4.066,7.932-11.337,15.154-18.837,20.201c-15.705,10.568-32.422,19.66-48.926,28.999c-8.641,4.889-30.732,0.511-37.959-7.015
			c-7.399-7.706-14.347-15.89-22.163-23.141c-9.364-8.687-20.601-13.791-33.695-13.593c-1.931,0.029-3.845,1.173-5.938,3.01
			c27.612-0.681,42.47,17.232,57.885,37.367c-5.928-0.507-10.36-0.886-14.792-1.265c-0.118,0.711-0.236,1.422-0.354,2.133
			c5.949,4.191,13.527,2.606,20.147,4.401c7.101,1.925,14.348,3.311,21.53,4.932c0.128,0.571,0.255,1.143,0.383,1.714
			c-6.515,1.406-13.067,2.664-19.522,4.305c-1.936,0.492-3.602,2.05-5.391,3.119c1.903,0.566,3.903,1.825,5.692,1.576
			c6.429-0.897,12.788-2.304,20.428-3.758c-5.878,10.826-12.056,20.781-12.117,33.028c5.934-11.081,9.469-23.787,20.091-31.283
			c10.256-7.237,21.378-13.247,33.668-20.74c-2.599,15.725-1.806,30.159-13.823,41.076c-5.845,5.31-10.059,12.456-14.742,18.964
			c-0.808,1.123-0.265,3.216-0.359,5.141c9.099-10.64,17.444-20.398,26.193-30.628c6.782,20.058,2.936,37.664-7.032,54.513
			c-1.34,2.265-1.769,5.068-1.226,8.035c10.37-15.238,19.855-30.719,16.69-50.302c-4.015-24.844,7.993-44.474,31.949-52.196
			c0.571-0.184,1.253-0.023,2.603-0.023c1.51,16.308,2.815,32.55,4.566,48.743c2.003,18.53-0.135,36.533-5.665,54.251
			c-3.816,12.225-10.548,22.367-20.542,30.432c-5.923,4.781-11.578,9.894-17.826,15.264c-14.331-12.117-32.655-15.659-50.479-20.403
			c-1.579-0.421-3.471,0.333-5.218,0.541c1.328,1.324,2.435,3.348,4.023,3.851c6.848,2.171,13.914,3.659,20.751,5.859
			c5.582,1.797,11.195,3.799,16.331,6.568c3.6,1.941,9.385,5.853,9.011,7.967c-0.965,5.451-5.226,9.87-11.676,10.728
			c-4.307,0.573-8.588,1.35-12.892,1.95c-4.315,0.601-8.709,0.815-12.944,1.756c-2.207,0.49-4.147,2.18-6.207,3.327
			c2.272,0.286,4.571,0.942,6.809,0.775c3.653-0.274,7.265-1.084,11.523-1.769c-1.328,2.786-2.335,4.897-3.342,7.009
			c0.513,0.415,1.026,0.83,1.54,1.245c1.602-1.219,3.063-2.724,4.835-3.598c4.037-1.99,8.254-5.193,12.349-5.119
			c6.187,0.111,9.777-2.681,13.252-6.764c4.666-5.481,9.285-11.004,14.038-16.408c1.524-1.733,3.409-3.148,5.446-4.997
			c2.344,18.846-4.553,34.872-19.314,41.542c-9.516,4.3-18.779,9.185-27.999,14.101c-2.055,1.096-3.453,3.423-5.153,5.184
			c0.4,0.389,0.8,0.778,1.2,1.167c11.18-5.528,22.359-11.056,33.539-16.584c0.5,0.527,0.999,1.053,1.499,1.58
			c-6.613,15.985-12.432,32.065-7.093,49.464c0.697,0.17,1.394,0.34,2.092,0.51c0.475-2.261,1.687-4.655,1.307-6.763
			c-2.869-15.911,1.953-29.871,11.081-42.419c8.251-11.343,13.868-23.401,16.048-37.413c1.265-8.134,4.799-15.916,7.313-23.856
			c0.832,0.105,1.663,0.211,2.495,0.316c0.439,2.607,1.16,5.201,1.272,7.822c0.686,16.127,1.079,32.267,1.89,48.387
			c0.462,9.168-2.123,17.208-7.479,24.484c-15.641,21.249-27.385,44.531-36.126,69.365c-0.671,1.906-0.655,4.053-0.959,6.088
			c0.659,0.2,1.318,0.4,1.977,0.6c7.067-15.262,14.134-30.524,21.596-46.639c3.958,5.025-0.269,11.823,8.448,14.306
			c-6.105-18.196,1.226-31.246,14.055-43.078c0.335,2.005,0.889,3.576,0.807,5.113c-0.651,12.098-0.811,24.276-2.473,36.241
			c-0.632,4.547-4.524,8.802-7.417,12.843c-7.616,10.639-15.446,21.127-23.293,31.599c-7.597,10.138-6.705,21.689-5.526,33.219
			c0.117,1.144,2.511,2.056,3.848,3.075c0.589-1.501,1.983-3.223,1.641-4.469c-3.443-12.562-1.081-23.646,7.421-33.584
			c4.091-4.782,7.71-9.967,12.092-14.804c-9.057,18.21-7.166,38.219-10.067,57.407c-2.088,13.808-14.037,27.999-27.621,30.305
			c-5.692,0.966-12.413-0.129-17.837-2.331c-17.276-7.014-34.183-14.943-51.178-22.638c-2.558-1.158-5.939-2.012-4.269-6.512
			c0.343-0.924-1.776-3.102-3.135-4.265c-13.49-11.541-26.532-23.5-36.524-38.355c-0.88-1.308-1.204-2.989-1.787-4.497
			c-7.13-5.154-13.215-11.057-14.566-20.348c6.106,6.381,12.212,12.762,18.318,19.143c6.98,6.189,13.993,12.34,20.926,18.58
			c4.453,4.009,8.378,8.749,13.272,12.088c7.249,4.946,15.127,8.98,22.787,13.312c1.873,1.059,3.944,1.77,5.923,2.64
			c0.385-0.512,0.77-1.024,1.155-1.535c-2.829-3.125-5.398-6.541-8.529-9.326c-19.523-17.369-39.667-34.076-58.597-52.063
			c-11.783-11.197-22-24.088-32.491-36.578c-3.948-4.7-6.687-10.415-9.977-15.667c-2.22-2.003-4.654-3.82-6.605-6.057
			c-2.339-2.681-4.266-5.722-6.54-8.837c1.049-0.621,1.96-1.161,2.872-1.702c-2.582-1.434-5.879-2.28-7.626-4.403
			c-8.392-10.199-16.293-20.801-24.536-31.126c-2.162-2.708-4.924-4.936-7.411-7.385c-0.265,0.295-0.529,0.591-0.794,0.886
			c1.767,4.658,3.534,9.316,5.3,13.973c3.641,4.995,7.282,9.991,10.922,14.986c2.548,3.522,5.096,7.043,7.643,10.565
			c5.302,7.034,10.565,14.096,15.946,21.069c0.777,1.007,2.113,1.581,2.93,2.168c-1.054,1.343-1.929,2.46-2.804,3.576
			c-6.05-8.577-12.101-17.153-18.151-25.73c-2.631-3.485-5.263-6.971-7.894-10.456c-3.585-5.201-7.169-10.402-10.754-15.602
			c-12.202-13.94-20.565-29.969-24.624-47.969c-1.546-6.857-2.053-14.273-1.318-21.253c1.572-14.933,4.246-29.751,6.527-44.608
			c0.188-1.229,0.814-2.39,0.93-2.717c4.25,9.309,8.958,18.898,12.994,28.762c2.02,4.938,3.269,10.311,4.025,15.608
			c0.641,4.484-0.181,9.161,0.168,13.713c0.128,1.664,1.766,3.211,2.715,4.812c0.737-1.781,1.929-3.51,2.142-5.351
			c1.83-15.881-2.201-30.52-9.346-44.602c-2.04-4.021-3.653-8.612-3.986-13.053c-0.367-4.9,0.964-9.927,1.555-14.899
			c0.679-0.077,1.357-0.154,2.035-0.23c3.691,4.203,7.271,8.515,11.157,12.529c0.91,0.94,2.861,0.871,4.333,1.266
			c-0.103-1.505,0.397-3.563-0.399-4.433c-16.478-18.008-18.259-40.281-18.758-63.037c-0.512-23.331,5.763-45.069,15.557-67.802
			c3.122,5.716,6.462,10.277,8.264,15.38c11.729,33.217,17.694,67.424,16.104,102.726c-0.144,3.199-2.068,6.58-3.903,9.395
			c-8.848,13.578-8.906,28.866-8.976,44.166c-0.004,0.841,1.011,1.687,2.728,4.366c3.115-16.389,0.578-32.485,10.355-45.513
			c10.191,22.105,3.914,43.642-0.704,65.2c-0.273,1.274-0.983,2.496-1.04,3.762c-0.059,1.293,0.435,2.612,0.687,3.919
			c1.152-0.93,3.125-1.705,3.334-2.813c3.18-16.883,6.747-33.73,8.922-50.752c1.507-11.797,1.021-23.849,1.426-35.786
			c0.615-0.237,1.23-0.474,1.844-0.711c3.44,4.778,7.336,9.297,10.227,14.387c6.667,11.738,13.181,23.587,19.152,35.69
			c12.095,24.515,5.79,50.52-16.343,66.635c-9.298,6.77-14.862,15.665-18.347,26.219c-0.817,2.473-1.148,5.106-2.446,7.584
			c-2.172-11.137-4.164-22.244-0.741-33.341c4.622-14.983,9.978-29.748,14.294-44.815c3.053-10.659,5.67-21.669,0.731-32.623
			c-0.952-2.111-2.417-3.99-3.645-5.976c-0.645,0.218-1.29,0.436-1.935,0.654c0.113,1.757-0.335,3.82,0.428,5.223
			c5.659,10.396,3.195,20.932,0.281,31.199c-3.389,11.94-8.292,23.463-11.447,35.454c-3.011,11.445-4.618,23.26-6.704,34.182
			c-6.447-6.749-9.864-18.933-22.658-22.558c3.563,5.575,6.894,11.316,10.741,16.688c6.515,9.098,13.448,17.896,19.962,26.995
			c1.05,1.467,0.837,3.839,1.207,5.792c7.493,2.874,11.165,9.367,14.937,15.767c2.379,3.518,4.511,7.239,7.201,10.5
			c3.079,3.733,6.599,7.111,10.034,10.536c1.785,1.779,3.889,3.236,5.699,4.992c18.996,18.426,41.752,31.622,63.846,45.697
			c13.328,8.491,27.066,16.337,40.689,24.515c1.213-0.984,2.348-1.904,3.878-3.145c-1.499-1.212-2.702-2.368-4.075-3.267
			c-20.556-13.459-40.946-27.182-61.751-40.247c-30.046-18.868-52.908-45.055-74.907-72.181c-2.017-2.487-3.172-5.672-4.205-7.572
			c2.732-4.964,5.953-9.959,8.327-15.329c3.603-8.148,8.374-13.718,15.51-16.939c-1.246,14.673-2.51,29.515-3.761,44.359
			c-0.141,1.669-0.686,3.514-0.171,4.969c0.507,1.432,2.125,2.471,3.255,3.682c0.798-1.108,2.207-2.169,2.295-3.331
			c0.545-7.179,1.02-14.379,1.089-21.575c0.119-12.53,1.676-24.611,9.292-36.143c7.979,11.766,14.248,23.208,10.729,37.454
			c-3.733,15.108,1.647,28.426,7.194,42.272c4.103-4.407,3.88-4.339,0.55-15.234c-1.824-5.967-2.95-12.177-3.96-18.348
			c-0.346-2.112,0.621-4.438,1.252-8.266c4.079,8.211,4.713,16.625,12.516,21.698c0.439-2.047,0.819-2.725,0.658-3.229
			c-4.156-13.016-8.288-26.042-12.615-39.001c-1.369-4.1-2.494-8.656-5.105-11.894c-6.229-7.723-6.286-15.376-1.933-23.712
			c1.291-2.472,2.315-5.084,4.095-9.04c4.743,5.533,9.364,9.828,12.635,14.981c5.828,9.177,11.37,18.617,16.07,28.41
			c7.167,14.931,20.922,18.651,35.043,22.06c0.797,0.192,1.959-1.127,2.951-1.742c-0.721-0.94-1.256-2.371-2.197-2.727
			c-2.827-1.068-5.806-1.737-8.736-2.523c-13.538-3.63-21.469-12.419-23.99-25.363c7.776,2.05,15.765,4.318,23.852,6.156
			c1.663,0.378,3.692-0.846,5.551-1.332c-1.579-0.919-3.089-2.48-4.747-2.657c-15.079-1.612-25.411-9.878-35.389-21.02
			c-11.749-13.12-18.107-26.9-16.323-44.429c0.251-2.466-0.671-5.05-1.153-8.266c18.546,6.654,35.124,12.708,40.725,34.945
			c2.703,10.733,13.147,19.536,20.234,29.103c0.451,0.609,2.184,0.267,3.32,0.367c-0.078-1.304,0.339-2.982-0.317-3.85
			c-3.154-4.172-7.148-7.795-9.809-12.234c-3.961-6.607-7.213-13.661-10.456-20.669c-1.983-4.284-3.384-8.838-5.792-15.258
			c6.496,2.738,12.154,4.053,16.514,7.179c9.808,7.031,21.087,9.096,32.405,11.296c1.426,0.277,3.127-0.857,4.7-1.337
			c-0.012-0.573-0.023-1.146-0.035-1.72c-9.073-2.654-18.145-5.308-27.217-7.962c11.734-7.337,22.875-2.337,34.058,0.243
			c0.298-0.636,0.595-1.271,0.892-1.907c-1.532-1.283-2.91-3.383-4.624-3.708c-7.184-1.364-14.829-4.119-21.643-2.839
			c-16.199,3.044-30.563-1.99-45.09-7.152c-5.497-1.953-10.638-4.908-16.301-7.576c13.656-11.012,28.5-8.205,43.605-3.383
			c-0.014-1.243-0.028-2.485-0.042-3.727c-9.037-3.529-18.148-7.097-28.344-4.774c-4.865,1.108-9.56,2.998-14.293,4.646
			c-9.701,3.377-14.077,1.652-19.915-6.77c-23.165-33.417-35.113-71.346-44.748-110.232c-0.157-0.634-0.236-1.288-0.391-1.923
			c-3.499-14.374-2.339-15.509,11.984-17.514c9.655-1.351,19.402-3.353,28.55-6.625c8.43-3.016,14.68-1.047,19.695,5.224
			c6.662,8.331,12.765,17.124,18.833,25.908c4.842,7.009,10.394,12.969,18.951,15.151c1.982,0.506,4.16,0.245,6.343-0.913
			c-5.743-3.684-12.257-6.586-17.015-11.271c-4.807-4.734-7.875-11.235-11.309-17.446c12.226,4.862,22.077,18.598,37.171,10.141
			c0.133-0.797,0.266-1.593,0.399-2.389c-1.871-0.149-3.771-0.143-5.609-0.479c-4.745-0.867-10.251-0.649-14.046-3.07
			c-13.005-8.295-25.405-17.536-38.096-26.459c12.203-13.677,34.412-13.513,46.685-3.242c11.545,9.662,24.311,12.556,38.181,14.411
			c4.263,0.57,8.353,2.343,12.579,3.323c1.638,0.38,3.432,0.089,5.155,0.104c-1.212-1.495-2.154-3.843-3.686-4.33
			c-5.371-1.708-10.883-3.237-16.456-3.982c-9.706-1.299-18.361-4.135-26.049-10.75c-5.311-4.569-12.063-7.463-17.831-12.724
			c8.65,1.906,17.329,3.69,25.938,5.766c4.644,1.12,9.104,3.056,13.773,3.998c2.435,0.491,5.144-0.373,7.73-0.625
			c0.092-0.818,0.183-1.637,0.275-2.455c-13.877-3.748-27.754-7.495-42.066-11.36c8.133-8.986,16.134-17.635,19.904-29.042
			c-11.997,10.742-17.673,29.19-38.547,28.55c1.12-7.064,4.618-10.852,10.236-13.986c5.169-2.884,9.384-7.565,13.744-11.741
			c0.903-0.865,0.597-2.993,0.849-4.538c-1.368,0.586-2.982,0.884-4.063,1.807c-5.495,4.693-10.851,9.548-16.256,14.347
			c-0.705-0.544-1.411-1.087-2.116-1.631c1.973-5.643,4.133-11.229,5.865-16.945c1.556-5.134,4.995-10.321,2.744-15.67
			c-0.711-0.032-1.423-0.065-2.134-0.097c-3.341,9.386-6.984,18.677-9.965,28.177c-7.657,24.401-31.5,30.601-49.518,28.132
			c-11.381-1.559-22.571-4.812-33.686-7.886c-5.441-1.504-11.829-4.137-11.544-10.774c0.276-6.417,7.107-7.987,12.183-9.116
			c4.949-1.1,10.553-1.254,15.475-0.115c18.34,4.241,34.174-1.84,48.67-11.781c7.625-5.229,13.879-12.505,20.481-19.127
			c1.108-1.111,0.832-3.602,1.195-5.456c-1.5,0.855-3.234,1.459-4.461,2.606c-7.999,7.474-15.889,15.065-23.814,22.618
			c-0.594-0.521-1.188-1.041-1.782-1.562c1.942-4.74,4.186-9.383,5.736-14.248c1.421-4.459,5.287-8.775,0.924-14.243
			c-0.732,1.892-1.444,3.793-2.201,5.675c-2.109,5.248-3.889,10.664-6.426,15.697c-6.188,12.275-16.655,17.69-30.152,15.63
			c-8.932-1.363-17.785-3.248-28.409-5.222c4.387-6.834,7.688-12.617,11.599-17.954c14.722-20.09,34.366-35.111,52.942-51.276
			c16.9-14.707,33.237-30.062,49.768-45.19c1.919-1.756,4.102-3.615,5.129-5.892c6.407-14.2,19.026-17.81,32.725-19.898
			c2.971-0.453,5.845-1.545,8.764-2.343c-0.118-0.604-0.235-1.207-0.353-1.811c-4.653-0.339-9.306-0.679-13.959-1.018
			c0.074-0.557,0.148-1.114,0.223-1.671c4.532-2.57,9.065-5.14,14.014-7.947c0.396,0.608,1.033,1.583,1.637,2.51
			c6.485-4.217,2.804-9.503,1.479-14.862c-3.464,9.286-11.908,11.711-19.762,15.037c15.117-13.62,31.597-26.026,39.87-45.471
			c-0.462-0.475-0.924-0.951-1.386-1.426c-8.769,9.531-17.537,19.061-26.306,28.592c-0.88-0.624-1.76-1.249-2.64-1.873
			c8.142-15.055,22.99-27.042,21.352-46.819c-1.865,3.251-3.654,6.55-5.636,9.729c-0.69,1.107-1.855,1.917-2.803,2.863
			c-0.132-1.268-0.015-2.628-0.448-3.783c-0.818-2.178-1.953-4.238-3.663-7.834c-1.017,4.32-1.6,6.794-2.182,9.267
			c-0.599,0.111-1.198,0.221-1.797,0.332c-0.409-1.841-1.056-3.666-1.186-5.526c-0.689-9.879,1.129-18.986,7.594-26.988
			c4.513-5.585,9.666-7.482,16.342-4.758c5.187,2.117,10.308,4.397,15.507,6.483c1.574,0.632,3.311,0.859,4.974,1.272
			c0.381-0.852,0.763-1.704,1.145-2.556c-7.762-4.212-15.524-8.424-23.285-12.635c4.169-5.122,9.071-4.594,14.391-1.433
			c4.994,2.968,10.091,5.762,15.143,8.632c0.506-0.796,1.011-1.592,1.517-2.388c-6.405-4.667-12.809-9.334-20.811-15.164
			c5.745-2.089,10.889-5.541,16.058-5.58c31.911-0.241,63.884-2.313,95.717,1.815c0.558,0.073,1.171-0.279,1.806-0.445
			c-0.718,6.239-1.418,12.312-2.117,18.384c0.887,0.144,1.775,0.288,2.662,0.432c0.926-3.606,1.945-7.192,2.757-10.823
			c1.242-5.551,3.967-8.161,10.286-8.163c17.432-0.003,34.886-0.434,52.286-1.462c9.797-0.579,19.47-3.361,29.263-3.844
			c6.462-0.319,13.039,1.685,19.564,2.648c0.281-0.688,0.561-1.377,0.842-2.066c-4.113-1.998-8.226-3.997-13.084-6.358
			c11.146-3.151,19.594-13.086,32.793-11.361c-0.458,0.781-0.941,1.603-1.679,2.862c8.149-1.89,8.14,4.509,9.823,9.206
			c0.456,1.272,0.789,2.587,1.21,3.872c0.839,2.56,1.699,5.114,2.805,8.437c-0.46,0.824-1.548,2.769-2.658,4.756
			c1.766,0.637,3.165,1.143,5.106,1.843c-2.671,1.079-4.625,1.868-8.047,3.25c3.806,2.454,6.399,4.125,9.285,5.986
			c-3.27,1.531-10.756-0.036-7.441,6.804c-12.148,5.938-24.364,11.743-36.389,17.919c-2.571,1.32-4.452,3.982-7.346,6.672
			c29.461,16.852,57.298,35.365,90.762,44.17C1324.834,865.902,1325.612,888.94,1327.631,912.294z M1135.072,842.308l0.036,0.166
			C1135.089,842.385,1135.072,842.308,1135.072,842.308L1135.072,842.308z M855.357,1066.314c17.515,0.82,33.388,1.563,48.407,2.266
			C888.712,1073.797,872.859,1073.007,855.357,1066.314z"/>
		<path d="M775.414,644.443c0.258-0.153,0.517-0.306,0.775-0.458c-0.266-0.034-0.531-0.067-0.797-0.101
			C775.399,644.07,775.407,644.256,775.414,644.443z"/>
		<path d="M820.343,711.317c0.022-0.46,0.044-0.921,0.065-1.381c-0.208,0.386-0.478,0.715-0.813,0.996
			C819.842,711.067,820.092,711.192,820.343,711.317z"/>
		<path d="M819.106,712.107c0-0.003-0.177-0.01-0.177-0.01c0.045,0.065,0.091,0.13,0.137,0.195
			C819.079,712.23,819.093,712.169,819.106,712.107z"/>
		<path d="M820.043,713.68c-0.326-0.463-0.651-0.926-0.977-1.389c-0.143,0.669-0.287,1.337-0.43,2.004
			C819.106,714.09,819.574,713.885,820.043,713.68z"/>
		<path d="M980.44,931.584c-0.06,1.174-0.12,2.349-0.18,3.523c2.059,0.292,4.125,0.87,6.173,0.812
			c3.253-0.093,6.492-0.876,9.741-0.903c14.197-0.121,27.473,3.802,40.425,9.28c1.467,0.62,3.625-0.395,5.463-0.651
			c-1.104-1.215-2-3.136-3.345-3.533c-10.605-3.128-21.15-6.889-32.006-8.598C998.169,930.167,989.212,931.462,980.44,931.584z"/>
		<path d="M1005.597,953.929c14.65,4.896,29.006,9.693,44.586,14.9C1046.818,959.318,1019.804,951.14,1005.597,953.929z"/>
		<path d="M1014.469,890.965c12.475,4.388,24.581,8.646,38.093,13.399C1045.782,894.356,1023.259,886.8,1014.469,890.965z"/>
		<path d="M1025.989,790.86c9.592,0,17.945,0,27.414,0C1044.262,783.733,1032.343,783.668,1025.989,790.86z"/>
		<path d="M748.964,590.136c-0.796,0.114-1.593,0.227-2.389,0.341c2.369,19.906,4.737,39.813,7.105,59.716
			c3.198-0.334,3.777-0.336,3.76-4.19c-0.024-5.545-0.715-11.13-1.61-16.619C753.694,616.278,751.271,603.216,748.964,590.136z"/>
		<path d="M888.701,803.859c0.42,0.517,0.841,1.034,1.261,1.551c17.387-4.628,34.797-3.317,52.215,0.075
			c0.259-0.635,0.517-1.27,0.776-1.904c-1.606-1.101-3.089-2.877-4.839-3.197c-14.888-2.725-29.856-3.112-44.768-0.273
			C891.622,800.438,890.241,802.566,888.701,803.859z"/>
		<path d="M950.728,740.962c8.012,4.692,15.231,10.783,24.267,13.375C968.536,746.798,961.062,741.164,950.728,740.962z"/>
		<path d="M922.991,757.409c-8.426-1.027-15.681-1.912-24.394-2.975C901.77,759.969,918.665,761.927,922.991,757.409z"/>
		<path d="M968.748,625.026c0-5.151,0-10.312,0-15.472C962.593,617.104,962.935,621.148,968.748,625.026z"/>
		<path d="M1041.82,717.473c-0.718,0.436-1.437,0.873-2.155,1.309c0.919,0.07,1.839,0.139,2.758,0.209
			C1042.222,718.485,1042.021,717.979,1041.82,717.473z"/>
		<path d="M1224.88,1256.676c-13.571,56.316-23.291,113.854-50.859,165.945c2.049-0.914,3.397-2.222,4.248-3.799
			c4.565-8.463,9.316-16.845,13.437-25.524c19.672-41.427,29.147-85.767,36.812-130.592c0.305-1.781-0.517-3.754-0.814-5.638
			C1226.763,1256.938,1225.822,1256.807,1224.88,1256.676z"/>
		<path d="M1127.652,1451.722c13.447-2.6,49.474-42.727,49.196-55.365C1160.281,1415.001,1143.952,1433.378,1127.652,1451.722z"/>
		<path d="M677.22,1024.586c-5.04-10.957-7.434-22.107-6.704-34.012c0.376-6.127,1.021-12.237,1.545-18.355
			c-0.586-0.223-1.172-0.445-1.758-0.668c-1.229,2.427-2.897,4.731-3.617,7.301c-4.681,16.714-3.405,32.893,3.857,48.825
			c3.008,6.599,4.439,13.918,6.559,20.917c0.515,1.7,0.922,3.432,1.379,5.15c0.633,0.042,1.265,0.084,1.897,0.127
			c0.772-2.713,2.549-5.594,2.126-8.106C681.297,1038.59,680.215,1031.097,677.22,1024.586z"/>
		<path d="M699.025,1048.089c-7.08-11.391-6.347-26.374-16.649-38.141c0,3.691-0.368,5.704,0.061,7.53
			c2.411,10.257,4.94,20.487,7.588,30.686c0.984,3.792,8.281,7.28,11.315,5.218c7.444-5.062,14.637-10.494,21.931-15.777
			c-0.271-0.545-0.542-1.09-0.813-1.636C712.889,1035.87,707.541,1044.683,699.025,1048.089z"/>
		<path d="M750.162,849.846c-0.896-0.014-1.791-0.028-2.687-0.042c0,9.046,0,18.091,0,27.745
			C754.517,868.373,751.176,859.029,750.162,849.846z"/>
		<path d="M1201.157,912.276c8.775,13.088,13.739,27.701,17.694,42.785c0.463,1.767,2.611,3.093,3.978,4.623
			c0.558-0.385,1.117-0.769,1.675-1.154c-3.387-18.44-8.815-36.002-21.592-50.408c-0.671,0.208-1.342,0.415-2.013,0.623
			C1200.963,909.936,1200.586,911.424,1201.157,912.276z"/>
		<path d="M762.387,1235.996c1.327,11.257,6.568,20.088,17.451,26.413c-5.537-9.703-10.622-18.612-15.707-27.521
			C763.55,1235.258,762.969,1235.627,762.387,1235.996z"/>
	</g>
</g>
</svg>
