<?xml version="1.0" standalone="no"?> <!DOCTYPE svg PUBLIC "-//W3C//DTD SVG 20010904//EN" "http://www.w3.org/TR/2001/REC-SVG-20010904/DTD/svg10.dtd"> <svg version="1.0" xmlns="http://www.w3.org/2000/svg" width="512.000000pt" height="512.000000pt" viewBox="0 0 512.000000 512.000000" preserveAspectRatio="xMidYMid meet"> <g transform="translate(0.000000,512.000000) scale(0.100000,-0.100000)" fill="#ffffff" stroke="none"> <path d="M1205 4769 c-406 -56 -727 -276 -897 -614 -48 -94 -91 -221 -114 -330 -26 -125 -26 -434 0 -588 51 -310 182 -688 339 -981 68 -126 31 -119 552 -113 356 4 448 3 480 -8 50 -18 110 -81 124 -131 7 -25 11 -171 11 -392 0 -330 1 -357 21 -414 36 -107 100 -182 202 -235 47 -25 62 -28 152 -28 89 0 107 3 162 29 66 30 147 105 177 165 44 84 46 120 46 1041 0 856 1 876 20 908 29 47 79 69 128 54 21 -6 49 -23 63 -38 24 -25 24 -26 29 -297 l5 -272 31 -65 c37 -79 79 -128 142 -168 97 -62 99 -62 724 -62 424 0 568 -3 568 -12 0 -12 -95 -171 -173 -288 -292 -438 -732 -895 -1218 -1267 -136 -104 -169 -142 -169 -196 0 -53 75 -127 128 -127 36 0 77 25 212 129 616 473 1130 1051 1462 1648 l63 113 197 0 197 0 35 31 c62 54 58 155 -7 201 l-32 23 -915 5 c-503 3 -923 9 -932 13 -9 5 -25 21 -35 35 -16 24 -19 58 -23 297 -5 250 -7 274 -27 318 -74 160 -208 244 -377 235 -139 -7 -253 -88 -320 -228 l-31 -65 -5 -922 -5 -923 -26 -25 c-62 -62 -167 -44 -203 35 -7 17 -12 177 -16 490 l-5 465 -30 54 c-16 29 -44 65 -62 78 -68 52 -72 52 -609 53 l-500 0 -58 128 c-190 416 -264 726 -254 1060 9 267 75 453 225 629 102 119 292 231 469 275 119 30 349 32 467 5 404 -95 698 -388 788 -787 15 -67 50 -105 106 -114 81 -14 138 34 157 134 16 77 59 190 100 263 241 423 750 625 1211 480 333 -105 543 -342 616 -694 19 -92 20 -126 16 -294 -6 -209 -23 -307 -93 -543 l-37 -122 18 -46 c21 -56 55 -79 116 -79 75 0 98 24 137 140 84 247 130 552 119 786 -22 466 -249 835 -632 1027 -93 47 -238 94 -345 113 -106 19 -355 16 -455 -5 -285 -60 -524 -191 -712 -389 -43 -46 -103 -121 -133 -166 -29 -44 -56 -81 -60 -81 -3 0 -33 39 -66 88 -190 281 -497 482 -837 547 -102 20 -309 27 -402 14z"/> </g> </svg>